<?xml version="1.0" encoding="utf-8"?>
<!-- Generator: Adobe Illustrator 26.3.1, SVG Export Plug-In . SVG Version: 6.00 Build 0)  -->
<svg version="1.1" id="Capa_1" xmlns="http://www.w3.org/2000/svg" xmlns:xlink="http://www.w3.org/1999/xlink" x="0px" y="0px"
	 viewBox="0 0 30.6 11.2" style="enable-background:new 0 0 30.6 11.2;" xml:space="preserve">
<style type="text/css">
	.st0{fill:#727070;}
</style>
<g>
	<g>
		<path class="st0" d="M30,0c0.2,0,0.4,0.1,0.5,0.2c0.2,0.3,0.1,0.6-0.2,0.8L15.6,11c-0.2,0.2-0.6,0.1-0.7-0.1
			c-0.2-0.3-0.1-0.7,0.1-0.8l14.7-10C29.8,0.1,29.9,0,30,0z"/>
	</g>
	<g>
		<path class="st0" d="M0.5,0c0.1,0,0.2,0,0.3,0.1l14.8,10c0.3,0.2,0.3,0.5,0.2,0.8c-0.2,0.3-0.5,0.3-0.8,0.2L0.3,1.1
			C0,0.9,0,0.6,0.1,0.3C0.2,0.1,0.4,0,0.5,0z"/>
	</g>
</g>
</svg>
