<?xml version="1.0" encoding="utf-8"?>
<!-- Generator: Adobe Illustrator 25.4.1, SVG Export Plug-In . SVG Version: 6.00 Build 0)  -->
<svg version="1.1" id="Layer_1" xmlns="http://www.w3.org/2000/svg" xmlns:xlink="http://www.w3.org/1999/xlink" x="0px" y="0px"
	 viewBox="0 0 232.6 255.5" style="enable-background:new 0 0 232.6 255.5;" xml:space="preserve">
<style type="text/css">
	.st0{fill:#FFFFFF;}
	.st1{opacity:0.9;fill:#5688A8;enable-background:new    ;}
	.st2{opacity:0.1;}
	.st3{display:none;fill:url(#SVGID_1_);}
	.st4{fill:#FDFDFD;}
	.st5{fill:#4B5764;}
	.st6{fill:none;}
	.st7{enable-background:new    ;}
	.st8{fill:none;stroke:#FFFFFF;stroke-miterlimit:10;}
</style>
<ellipse class="st0" cx="116" cy="94.8" rx="115.2" ry="93.8"/>
<path class="st1" d="M69.3,219.6c57.9,25.6,126.2,0,151.9-58.1c25.4-58.1-0.7-125.8-58.5-151.4c-58.2-26-126.2,0-151.9,58.1
	C-15.2,126,11.1,193.6,69.3,219.6"/>
<g class="st2">
	
		<radialGradient id="SVGID_1_" cx="66.0156" cy="-384.5856" r="138.4378" gradientTransform="matrix(1.1366 0 0 -1.0576 39.3603 -316.9346)" gradientUnits="userSpaceOnUse">
		<stop  offset="0" style="stop-color:#FFFFFF"/>
		<stop  offset="0.803" style="stop-color:#D9D9D9"/>
		<stop  offset="1" style="stop-color:#FFFFFF"/>
	</radialGradient>
	<path class="st3" d="M242.7,117.4c0-65.7-57.3-119-127.9-119s-127.9,53.3-127.9,119s57.3,119,127.9,119S242.7,183.1,242.7,117.4z"
		/>
	<g>
		<path class="st4" d="M99.3,214.6L99.3,214.6L99.3,214.6C99.3,214.7,99.3,214.6,99.3,214.6L99.3,214.6z M56.4,69.6
			c-0.3,0.5-2.3,1.1-3.2,1.4c-0.6,0.2-0.8,0.4-1.2,0.7c-0.2,0.1-0.4,0.4-0.6,0.5c-0.7,0.4-1.4,0.7-2.1,1c-0.7,0.4-1.2,1-2,1.4
			c0,0-1,0.5-1-0.3v-0.2c0.1,0,0.1,0,0.2,0c0.1-0.5,0.2-1.1,3-2.3l0.1-0.1c0.2-0.1,0.2-0.1,0.9-0.7h-0.1c0.9-0.9,1.6-1.5,2.3-2.1
			c0,0,0,0,0.1,0c0.3-0.3,0.5-0.4,0.7-0.6c0,0,0.1,0,0.2,0c0,0.1,0.1,0.1,0.3,0.1c0.8,0.1,1.5-0.2,2.3,0.2
			C56.6,68.9,56.6,69.3,56.4,69.6L56.4,69.6z M52.3,67.6c0,0-1.1-0.1-0.4-2c0-0.1,0.1-0.1,0.1-0.2h-0.1l-0.3,0.4l0,0
			c0-0.1,0.1-0.1,0.1-0.2c-0.3,0.2-1.6,2.2-1.8,3.4c-0.1,0.3-0.2,1.1-1.7,2c-0.1,0-0.1,0-0.2,0l0,0c-0.1,0-0.2,0-0.4-0.1
			c-0.1-0.5,0.1-1.2,0.6-2.3c0.1,0,0.1,0,0.2,0c0.9-2.1,1.2-2.6,0.7-3.5c-0.4-0.1-0.8-0.1-1.2-0.2c-1.9,0.9-3.6,2.1-4.9,6
			c-0.4,1.1-0.9,2-1.5,2.6l-0.1,0.1l0,0c-0.2,0.1-0.4,0.3-0.6,0.2l-0.2-0.3c0.1,0,0.3,0,0.4,0.1c-0.2-0.3-0.5-0.7,1-3.5l0,0h-0.1
			c0.5-0.9,0.5-0.9,1.1-2.2h0.1c0,0,0,0,0.1,0c0.8-1.9,1.2-2.5,1.8-3.3h-0.1c1.7-1.6,3.1-1.5,3.1-1.5c0.8,0.1,1.3,0.7,2,1
			c0.1,0,0.1,0,0.3,0c0.3-0.1,1.2,0,2,0.2c0.1,0,0.2,0.1,0.3,0.1c0.2,0.1,0.3,0.4,0.3,0.9C52.7,65.4,52.7,66.6,52.3,67.6L52.3,67.6z
			 M50.3,60.1c-0.3,0.5-1.3,1.4-1.4,1.4c-0.1,0-0.2,0-0.4-0.1c-0.3-0.1-0.6-0.3-0.9-0.4c-0.3,0-0.5,0-0.8-0.2
			c-0.1,0-0.2-0.2-0.2-0.3c0-0.2,0.1-0.4,0-0.6c-0.2-0.2-1.6,0.4-2.3,0.7c-0.4,0.2-0.6,0.2-0.8,0.2c-1-0.3,0.4-1.7,0.6-1.8
			c0.4-0.3,1-0.3,1.4-0.5c0.2-0.1,0.6-0.3,1.6-0.8c1.2-0.7,1.9-1.1,2.2-1c0.1,0,0.1,0.1,0.2,0.1c0,0.1,0,0.1,0,0.2
			c0,0.5,0,0.9,0.2,1.5c0.2,0.7,0.4,0.8,0.6,0.9c0.1,0.1,0.1,0.3,0,0.4C50.4,59.9,50.3,60.1,50.3,60.1L50.3,60.1z M27.3,53.9
			c-0.3,0.5-0.5,0.6-0.6,0.7c0.1-0.3,1.2-1.7,1.8-2.4l0,0c0.6-0.7,1-1.6,1.6-2.3c0,0,0,0,0,0.1c0.4-0.5,0.8-1,1.3-1.5
			C31.3,48.4,28.9,52.1,27.3,53.9L27.3,53.9z M121.2,182.8c-0.1-0.3-0.1-0.3-0.2-0.3v-0.1c-0.1-0.4-0.3-0.7-0.4-1.1
			c-0.3-0.7-0.1-0.7,0-0.7c-1.2-1.6-1.2-1.6-5-2.9c-0.2,0-0.4,0-0.6,0c-0.5-0.5-1.2-1.1-1.7-1.6s-0.3-0.5-0.2-0.5
			c-2.8-1.6-6.3-1-9.2-2.6c-1-0.5-1.1-0.5-1.3-0.5l-0.4-0.3c-2.2-1.1-3.1-1.2-4.8-1c-0.9,1.4-1,1.7-1.3,3.3c-0.4,0-0.8,0-1.2-0.1
			c-0.1-0.2-0.3-0.6-0.4-0.7c0.3-0.2,0.6-0.5,0.9-0.7c0.5-0.6,0.4-0.6,0.4-0.6l0.2-0.3c0.1-0.3,0.2-0.7,0.3-1c0-0.8,0.1-0.8,0.2-0.8
			c-1.9-2.1-4,1.1-6.2,1.2c-0.2-0.3-0.5-0.7-0.7-0.8c0.3-0.4,0.3-0.4,0.3-0.4l0.2-0.1l0.3-0.1c3.2-1.1,3.4-1.7,4-3
			c-0.1,0-0.2,0-0.3,0c-0.6-1.7-0.8-1.8-2.1-2.1c0-0.2,0.2-0.2,0.4-0.2c-0.3-0.4-0.3-0.4-2.4-3.5c-0.1,0-0.3,0-0.4,0l-0.3-0.4
			c-0.5-0.6-1.2-1.2-1.7-1.8c-0.1-0.3,0-0.3,0.2-0.3c-3.1-2.8-3.1-2.8-7.8-2c-0.5-0.6-1.1-1.2-1.5-1.9c-0.1,0-0.3,0-0.4,0
			c-0.7-0.8-1.5-1.6-2.2-2.5c0.1,0,0.3,0,0.4,0l-0.1-0.1c-0.6-0.4-2-1-4.2-1.3c0-0.7,0.2-1.6,0.5-2.2c0-0.2-0.1-0.2-0.2-0.2
			c0.1-0.7,0.2-1.6,0.3-2.2c0.1-0.3,0.2-0.3,0.3-0.2l-0.4-0.7l-0.1-0.1c-0.4,0.7-0.9,1.8-1.3,2.5c-0.9-0.6-1.6-1.4-2.6-2
			c0.2,0,0.4,0,0.6,0c-0.7-0.3-1.7-0.5-2.4-0.5c-0.7,0.3-0.6,0.3-0.6,0.3c-0.5,0.4-0.9,1.2-1,1.9c-0.4,0.6-0.5,0.6-0.6,0.6
			c-1.3-2.2-2-3.4-4.3-1.9c-0.3-0.2-0.7-0.4-1-0.5c-0.1-0.4,0-0.4,0.1-0.4c-0.3-0.7-0.7-1.5-1.1-2.1c-3.3,0.2-3.2,3.5-3.2,5.8
			c-0.2-0.3-0.4-0.7-0.6-0.9c-0.3-0.7-0.3-0.7-0.4-0.7c-0.2-0.9-0.3-1.8-0.3-2.5c0.1,0,0.2,0,0.2,0v-0.1c0.2-0.8,0.4-2,0.6-2.8
			c-0.3-0.2-0.6-0.5-0.9-0.7c-0.8,0.4-0.8,0.4-2.8,1.9c-2.1,1.4-2.6,3.8-3.9,5.7c-0.4,0-0.9-0.1-1.2-0.1c-0.3-0.6-0.8-1.3-1.3-1.9
			c-0.7-0.5-0.9-0.5-1-0.5c-0.3-0.1-0.7-0.3-1-0.4c-0.1,0.2-0.3,0.4-0.4,0.6c-0.6,0.4-1.4,0.9-2,1.3c-1.5-0.7-1.5-0.7-2.3-2.1
			c-0.1,0-0.2,0-0.3,0c-0.4-0.7-0.8-1.8-1.1-2.6c0.1,0,0.2,0,0.2,0c-0.3-1.7-0.3-1.7-0.5-3.5c-0.1-0.4-0.2-0.4-0.2-0.4
			c0-0.7,0-1.8,0-2.5c0.1,0,0.1,0,0.2,0c0.2-1.8,0.2-1.8-0.3-3.3c-0.5-0.7-0.6-0.7-0.7-0.7c-0.4-0.7-1.1-1.4-1.6-2
			c-0.7,0.2-1.5,0.7-2.1,1c-0.7-0.3-1.7-0.7-2.4-0.9c0-0.4,0-0.8,0-1.2c0.2-0.5,0.2-0.5,0.3-0.4c0.2-1.2,0.2-1.2,0.1-3.5
			c-0.1-0.5-0.1-0.5-0.2-0.5c0.2-1.5,0.2-1.5,0.9-2.5h0.1c0.7-1.6,0.7-1.6,0.8-3.4c-0.1-0.5-0.2-0.6-0.3-0.6
			c-0.1-0.4-0.2-0.8-0.3-1.1c0,0-2.6-0.8-4.6,0.4c-0.2,1.4-0.2,2.8-0.4,4.2c-2,0.2-2,0.3-2.9,1.3c-1.1-0.5-1.1-0.5-2.1-2.6
			c0.1,0,0.2,0,0.3,0.1c-1-2.2-1.1-2.6-1.5-4.3c-0.1,0-0.1,0-0.2,0c-0.1-0.7-0.1-1.5-0.1-2.1c0.1-0.6,0.1-0.5,0.2-0.5
			c0.1-2,0.1-2.2,0.3-3.9h-0.1c0.2-1.5,0.2-1.5,0.5-2.5h0.1c0.5-2,0.5-2.1,0.7-3.8c-0.1,0-0.1,0-0.2,0c-0.1-0.7,0.1-1.7,0.5-2.2
			c0.2-0.3,0.2-0.3,0.2-0.3l0.4-0.4l0.3-0.2c0.8-0.7,1.7-1.4,2.5-2.7l0,0c2.3-0.3,3,0.2,4,1.7c0.3,0,0.8,0,1.1,0
			c0.4-0.7,0.3-0.7,0.2-0.7l0.1-0.4c0.3-0.2,0.6-0.5,0.9-0.7c0.7,0.1,0.7,0.1,4.5-0.4c0.2,0.7,0.4,1.5,0.6,2.1
			c0.3-0.1,0.8-0.2,1.2-0.3c1.1,3.5,1.5,7.1,2.4,10.5c0.2,0,0.6,0,0.8,0c0.5-0.7,1-1.7,1.3-2.5c0-0.6,0-0.6-0.1-0.6
			c0.1-0.7,0.1-1.6,0.1-2.2c0.1-0.4,0.1-0.4,0.2-0.4c-0.1-1.1-0.1-2.2-0.2-3.5c-0.1-0.5-0.2-0.6-0.3-0.6c-0.1-0.7-0.2-1.4-0.3-2.1
			c0.1-0.6,0.2-0.6,0.3-0.6c0.7-1.7,0.9-2.3,2.8-3.5l0,0c0.5-0.5,1.2-1.1,1.6-1.7c0.6-0.7,0.6-0.7,0.7-0.7c2.1-2.4,2.3-2.6,2.8-3
			c2.1-0.9,2.1-0.9,3-1.8c0-0.3-0.1-0.7-0.1-0.9c0.1,0,0.2,0,0.3,0c-0.4-2.1-0.4-2.1-0.3-3.7c-0.1,0-0.2,0-0.3,0
			c0.8,0.1,2.8,0.5,3.1-2.1c0.1,0,0.2,0,0.3,0c0.1-0.5,0.5-1.2,0.9-1.5c0.3-0.1,0.7-0.3,1.1-0.5c0.2-0.5,0.4-1,0.4-1.5
			c-0.1,0-0.1,0-0.2,0c1.8-1.5,3.8-0.1,5.7-0.3c0.1-0.3,0.3-0.7,0.4-1c-0.1-0.7,0.1-0.7,0.2-0.6c-0.5-2.1-0.4-2.2,0.3-3.5h-0.1
			c1.3-1.1,3.6-0.4,4.7-2c0.1,0,0.1,0,0.2,0c0.2-0.3,0.6-0.6,0.8-0.8c0.2,1.2,0,2.4,0.2,3.6c0.4-0.1,0.9-0.1,1.2-0.2
			c0.3-0.2,0.3-0.2,0.4-0.2c2.5-1.7,5.6-1.8,8.3-2.9c0.6-0.7,0.6-0.7,0.6-0.7c0-0.4,0-0.7-0.1-1.1c-0.1-0.6-0.2-0.6-0.3-0.6
			c-0.1-0.3-0.1-0.7-0.2-1.1c-0.6,0.2-1.4,0.7-1.8,1.1c-1-0.2-1.2-0.2-1.3-0.2c0.1-0.4,0.2-0.9,0.2-1.3c-0.6-0.1-1.6-0.1-2.2,0.1
			c-0.1-0.3-0.2-0.7-0.3-1c0.1-0.2,0.2-0.1,0.3-0.1c1.1-2,1.1-2,0.9-3.3c-0.1,0-0.3,0-0.4,0c-0.3-0.1-0.7-0.3-1.1-0.4
			c-1,0.3-1,0.3-1,0.3l-0.3,0.2c-1.6,0.7-3.3,1.1-4.9,1.8c0.3-0.7,0.8-1.6,1.3-2.1h-0.1c1.4-1.7,3.7-1.5,5.6-2.4l0.1-0.1
			c0.6,0.2,1.5,0.4,2.1,0.7h0.1c0.1,0.7,0.1,1.8,0.1,2.5c2.4-0.5,2.5-0.9,2.8-2.1c0.2-0.1,0.2-0.1,0.2-0.1c1.2-0.7,1.2-0.7,4.3-1
			h0.1c0.5-0.5,1.2-1.1,1.8-1.5c0.1,0.4,0.3,0.8,0.4,1.2c-4.3,4.9-4.2,5.7-4.1,6.4c3.7,0,3.7,0,4.4,0.4c1,0.3,1,0.3,1,0.3l0.4-0.3
			c0.4,0,0.8-0.1,1.2-0.1c0.2,0.2,0.6,0.5,0.8,0.7c0.5-0.2,0.6-0.2,0.6-0.2c0.4-1.2,0.4-1.2-0.2-3.3c-0.1,0-0.2,0-0.3,0
			c-0.1-0.6-0.6-1.4-1.1-1.8c-0.3,0.1-0.8,0.1-1.1,0.2c-0.3-0.2-0.6-0.5-0.8-0.7c0.1,0,0.3,0,0.4,0c-0.3-0.2-0.6-0.4-0.9-0.6
			c0.3-0.7,0.9-1.5,1.3-2.1c0.3-0.6,0.3-0.6,0.2-0.6c0.5-0.6,1-1.4,1.5-2.1c0.1,0,0.1,0,0.2,0c0-0.4,0-0.7,0-1.1
			c-1.6-0.7-1.7-1.2-1.7-2c-0.1,0-0.2,0-0.3,0c-0.2-0.7-0.6-1.5-0.9-2.1c0.1,0,0.2,0,0.4,0c-0.7-0.2-1.6-0.4-2.3-0.3
			c-0.2-0.7-0.3-1.7-0.2-2.3c0-0.3-0.1-0.4-0.2-0.4c0-0.3,0-0.7,0-1c-0.1-0.8,0-0.8,0.1-0.8c-0.1-0.7-0.2-1.5-0.3-2.1
			C84.3,41,84.2,41,84.1,41c-0.3-0.1-0.8-0.1-1.2-0.2C81,42.5,81,42.5,80,43.1c-0.7-0.1-1.5-0.4-2.1-0.7c0-0.4,0.1-0.8,0.1-1.1
			c0.3-0.2,0.6-0.5,0.8-0.7l0,0c0.3-0.2,0.6-0.5,0.9-0.7c-0.2-0.3-0.5-0.7-0.7-1c-0.2-0.2,0-0.2,0.2-0.1c-0.3-0.1-0.8-0.3-1.1-0.5
			c-0.4-1.3-0.9-2.6-4.4-1.6c-0.6,0.5-0.6,0.5-3.8,4.2c-0.3,0.1-0.8,0.3-1.1,0.4c-0.3,4.1-0.3,4.4-3.3,6.2c-0.3-0.1-0.6-0.3-0.9-0.4
			c0.1,0,0.2,0,0.2,0c-0.3-0.1-0.8-0.2-1.1-0.3c-3,7-3,7-4.7,6.8c-0.1-0.3-0.2-0.7-0.3-1c0.2-0.3,0.6-0.7,0.8-0.9h0.1
			c0.4-0.7,0.9-1.4,1.2-2.1c-0.1,0-0.1,0-0.2,0l0.1-0.2c-0.3,0.2-0.6,0.6-0.9,0.7c0-0.3,0.1-0.7,0.1-1c0.1-0.6,0.1-0.6,0-0.6
			c0.3-0.6,0.7-1.4,0.9-2c0.1,0,0.1,0,0.2,0c0-0.3-0.1-0.7-0.1-1c-1.5,0.2-3.7,0.4-4.4-2.4c-0.2-0.3-0.3-0.3-0.4-0.4
			c-0.7-0.1-0.7-0.1-0.8-0.2l-0.6,1.2l-0.1-0.2c-0.1,0-0.1,0-0.2,0c0.2-0.3,0.5-0.7,0.7-1c0.6-0.9,0.6-0.9,0.7-0.9v-0.3
			c0.5-0.8,0.5-0.8,2-2.4h-0.1c0.5-0.6,1.3-1.2,1.9-1.7l0,0c1.1-0.6,2.2-1.1,3.3-1.7c0.9-0.5,0.9-0.5,0.9-0.5
			c0.7-0.4,1.6-0.8,2.3-1.1c0.3,0.2,0.6,0.4,0.9,0.6c0.3-0.2,0.6-0.4,0.9-0.6c0.2-0.1,0.2-0.1,0.2-0.1c0.5-0.5,1.2-1,1.7-1.4
			c-0.4,1.3-0.4,1.3-2.1,2.4c0.6,0,0.6,0,3.6-0.6c-0.1,0.4-0.3,0.8-0.4,1.1c0.3,0.1,0.8,0.2,1.1,0.3c0.3-0.3,0.6-0.6,0.9-0.8
			c-0.2,0-0.1,0-0.1,0v-0.2c-0.2-0.7-0.2-1.5,0-2.1c0.1-0.3,0-0.3-0.1-0.3s-0.1,0-0.2,0c0,0,0,0-0.1,0l-0.3,0.1
			c-0.3-0.1-0.4-0.2-0.4-0.2V32c0.2-0.3,0.5-0.6,0.8-0.8c2.1,1,4.8-0.6,5.8-2.1c-0.1-0.3-0.1-0.3-0.2-0.3v-0.2
			c1.6-1,1.8-0.9,3.3-0.8c0.3-0.2,0.3-0.2,0.3-0.2h0.1l0.1-0.1l0.7-0.5c-0.2,0.3-0.5,0.6-0.7,0.8c0.1,0.3,0.2,0.7,0.3,1
			c-1,0.8-1.5,1.2-2.4,1.6l0.7,0.7c0,0,0,0,0.1,0c0.7-0.5,0.7-0.5,2.3-1.6c0.1,0.3,0.2,0.7,0.3,1c-0.1,0.1-0.3,0.2-0.5,0.2
			c-1.5,0.6-2.7,1.7-4.3,2c-0.2-0.1-0.4-0.1-0.6-0.1c-0.7-0.1-0.8-0.1-0.8-0.1l-0.1,0.1c-1,0.7-1.5,0.9-2.6,2.6
			c3.4-0.6,4.8,0.1,5.2,2.3c0.2-0.1,0.5-0.3,0.7-0.5l0,0c0.5,0.8,0.8,1.6,2.2,1.5h0.1c0.2-0.3,0.6-0.6,0.8-0.8
			c0.3,0.2,0.7,0.4,1,0.6c0.3-0.2,0.7-0.4,1.1-0.5c0.2-0.5,0.1-0.5,0.1-0.5c0.2-0.5,0.4-1.2,0.4-1.7c0.1,0,0.2,0,0.3,0
			c-0.3-0.6-0.5-1.5-0.5-2.1c0.2-0.4,0.2-0.4,0.2-0.4L86,33c0.3,0.1,0.7,0.3,1,0.4c0.1,0.3,0.3,0.7,0.5,1c0.3,0.1,0.8,0.1,1.2,0.2
			l0,0l0.4-0.2c0.5-0.3,1.1-0.7,1.6-0.9l0,0c0.3-0.2,0.6-0.6,0.8-0.7c-0.2-0.3-0.4-0.6-0.6-0.8c0.2,0,0.3,0,0.5,0
			c-0.3-0.2-0.6-0.5-0.9-0.7c-0.1-0.4-0.1-0.8-0.2-1.1c-0.3-0.1-0.8-0.2-1.1-0.3c-0.4-0.4-0.5-0.4-0.5-0.4v-0.1
			c0.2-0.3,0.5-0.7,0.7-1c0.3-0.3,0.3-0.3,0.3-0.3c0.2-0.3,0.4-0.6,0.6-0.8c-0.3-0.3-0.6-0.7-0.9-0.9c-0.8-0.5-0.9-0.5-1-0.5
			l-0.1-0.1c-0.1-0.4-0.2-0.8-0.3-1.1c0.1-0.2,0.1-0.2,0.2-0.2c0.1-0.3,0.1-0.7,0.2-1c-1.4-0.7-1.8-0.9-4.4-0.4l0,0
			c-2.2,1.4-2.2,1.4-3.3,1.7c0.3-0.2,0.7-0.5,0.9-0.7c0.4-0.3,0.5-0.3,0.5-0.3l0.4-0.3c0.6-0.4,1.3-0.9,1.9-1.3
			c-1.6,0.2-4.7,0.6-7.5,3.7c0.3,0.2,0.7,0.5,1,0.7c-0.6,1.1-0.8,1.3-2.1,1.8h-0.1c-0.6,0.3-1.4,0.7-2,1c0.2-0.3,0.6-0.7,0.8-0.9
			c0.2-0.2,0.2-0.2,0.1-0.2c0.2-0.3,0.5-0.6,0.7-0.8c-0.4,0.1-0.9,0.2-1.2,0.2c0.2-0.3,0.4-0.7,0.6-0.9c0.1-0.1,0.2-0.1,0.2-0.1
			c0.4-0.5,1.1-1.1,1.5-1.6c0.6-0.6,0.5-0.6,0.5-0.6c-2.6,0.2-4,2.4-6.1,3.5c-0.6,0.3-1.4,0.7-2,0.9c0.4-0.5,1.1-1,1.6-1.4
			c0,0,0,0-0.1,0c0.3-0.2,0.8-0.6,1.1-0.7c0.9-0.6,0.9-0.6,0.9-0.6l0.5-0.3c-0.2,0-0.2,0-4.8,2.3c-0.7-0.1-1.5-0.3-2.1-0.6
			c0.2-0.3,0.4-0.7,0.6-0.9c0.4-0.4,0.4-0.4,0.4-0.4c1.9-0.1,2.2-0.3,3.5-0.8l0,0l0,0l0.2-0.1c0.6-0.4,1.3-0.9,1.7-1.6
			c0.6-0.5,0.5-0.5,0.5-0.5c0.6-0.4,1.3-0.8,1.9-1.1c0.2-0.1,0.2-0.1,0.2-0.1c2.1-0.8,2.1-0.8,2.8-1.7l0.3-0.1l0,0
			c0.6-0.2,1.5-0.6,2.1-0.8c0.4-0.2,0.4-0.2,0.4-0.2c2.1-0.8,2.1-0.8,2.9-1.5c0.1-0.1,0.1-0.1,0-0.1c-0.8,0.2-1.6,0.5-2.4,0.7
			c0.3-0.2,0.8-0.5,1.1-0.7c0.6-0.6,0.6-0.6,0.5-0.6l0.2-0.1c0.5-0.2,1.2-0.5,1.7-0.7c-1.7,0.2-3.1,0.4-5.6,1.4c0.3,0,0.8,0,1.1,0
			c-0.7,0.4-1.7,0.7-2.4,1c0.3,0,0.7-0.1,1.1-0.2c-0.6,0.3-1.5,0.7-2.1,0.9c0,0.3-0.1,0.7-0.1,1c-0.5,0.3-0.5,0.3-4.9,2.4l0.1-0.1
			c0,0,0,0-0.1,0c0.7-0.4,1.5-0.8,2.2-1.2l0,0c0.3-0.2,0.7-0.4,1-0.6c-0.3-0.1-0.7-0.2-1-0.3c0.6-0.4,1.3-0.8,1.9-1.2
			c0.5-0.3,0.4-0.3,0.4-0.3c0.3-0.1,0.7-0.3,1-0.5c-0.7-0.1-2.8-0.6-8.3,2.5c0.2,0,0.6,0.1,0.8,0.1l0,0l0.6-0.2
			c0.3-0.1,0.7-0.3,1-0.4c-2.2,1.2-4.3,2.6-6.7,3.6c0.4-0.4,1-0.9,1.5-1.3l0,0l0.2-0.1c0.3-0.2,0.6-0.5,0.9-0.7
			c-0.4,0-0.9-0.1-1.3-0.1l0,0c0.3-0.2,0.8-0.4,1.2-0.6c-0.1,0-0.2,0-0.2,0c0.3-0.2,0.7-0.4,0.9-0.6c-0.3,0.1-0.8,0.2-1.1,0.4
			c0.5-0.6,0.5-0.5,0.5-0.5c-0.7,0.3-1.5,0.7-2.2,0.9c0.6-0.3,1.5-0.7,2.1-1c0,0,0,0-0.1,0c1.4-0.7,1.4-0.7,3.5-1.7
			c-1.7,0.7-4.1,1.8-5.8,2.6c-8.5,4.6-9.4,5-15.2,9.1l-5,3.7l-0.1,0.1c-0.9,0.7-2.1,1.8-3.1,2.5l0,0c-4.5,4-5.9,5.4-7.9,7.6
			c0.3-0.3,0.7-0.7,1-0.9c0.2-0.2,0.2-0.2,0.2-0.2c1.8-1.9,1.8-1.9,2.6-2.6c0.2-0.2,0.2-0.2,0.2-0.2l0.4-0.4
			c-8,8-32.6,32.6-28.6,68.5c0.2,0,0.4,0,0.6,0.1c0.1-0.3,0.2-0.7,0.2-1c0-0.7-0.1-0.7-0.1-0.7c-0.1-0.7-0.2-1.6-0.3-2.3
			c0-0.6,0-0.6,0.1-0.6l-0.1-0.7c0-0.7,0-0.7,0.3-3.5c0,0-0.1,0-0.1-0.1c0-0.7,0-1.6,0-2.2s0.1-0.6,0.1-0.5c0.1-1.5,0.1-1.5,0.3-3.6
			c0-0.5,0-0.5,0-0.6v-0.7c0-0.7,0.1-1.5,0.2-2.1c0,0,0.1,0,0.1,0.1c0.2-0.7,0.5-1.7,0.8-2.3c-0.3,19.4-0.5,34.7,4.7,39.9
			c0.4,0,0.9-0.1,1.2-0.2c0.5,0.5,1.1,1.3,1.4,1.9c0.3,0,0.7,0.1,1,0.2l0,0h-0.1c0.1-0.3,0.2-0.7,0.3-1c0.3-0.1,0.8-0.3,1.1-0.4
			c17.5,22.1,17.5,22.1,19.8,23c0.2-0.3,0.5-0.7,0.7-1c0.1-0.9,0.2-0.9,0.2-0.9c0.3-0.2,0.7-0.4,1-0.6c2,1.8,2,1.8,4.6,24.6
			c0.2,1.3,37.6,37.6,38,37.9c4.8,3.6,9.8,7.5,22.7,8.4l1.5,0.1l0,0c-0.3,0-0.8-0.1-1.1-0.1c-0.7-0.1-0.7-0.1-0.8-0.1
			c-0.9-0.2-0.9-0.2-0.9-0.2c-0.3-0.1-0.8-0.2-1.1-0.3c-0.2-0.1-0.2-0.1-0.2-0.1l-0.8-0.3c0,0,0,0,0.1,0c-1.6-0.3-1.6-0.3-2.5-0.7
			c0.3,0.1,0.8,0.1,1.2,0.2c0.2-0.1,0.2-0.1,0.2-0.1c-0.3-0.1-0.8-0.3-1.1-0.5l0,0l-0.1-0.2c0.6,0,1.4,0,2,0l0,0
			c-0.3-0.5-0.3-0.5-0.3-0.5l-0.3-0.6c0,0,0,0,0.1,0c-0.6-0.4-1.4-0.8-2.1-1c-0.1,0-0.1,0-0.2,0c-0.3-0.1-0.8-0.3-1.1-0.5
			c-0.4-0.3-0.3-0.3-0.3-0.3c-0.2-0.3-0.5-0.7-0.7-0.9c2.6,1.9,2.7,1.9,4.6,1.7c0.3-0.7,0.4-0.7,0.4-0.7c0.1-0.3,0.2-0.7,0.3-1
			c-0.1-0.2-0.1-0.2-0.2-0.2v-0.1c-0.3-0.7-0.2-0.7-0.2-0.7c0.2-0.3,0.4-0.7,0.6-0.9c0.1-0.5,0.1-0.5,0-0.5v-0.1
			c0.2-0.2,0.5-0.6,0.8-0.7c0.1-0.2,0.2-0.2,0.2-0.2c-0.1-0.4-0.1-0.7-0.2-1.1c-0.4-0.6-0.5-0.6-0.6-0.6c-0.1-0.3-0.3-0.7-0.5-1
			c0.1-0.1,0.1-0.1,0.1-0.1c2.5-2.2,4.4-2.5,6.5-2.8c0.8-0.4,0.8-0.4,0.9-0.4l0.1-0.2c0.1-0.3,0.3-0.7,0.4-1.1
			c0.2-0.7,0.2-0.7,0.1-0.7c0.2-0.3,0.4-0.7,0.6-0.9c0.3-0.5,0.4-0.5,0.4-0.5c0.3-0.7,0.5-1.5,0.4-2.2c-0.1,0-0.1,0-0.2,0
			c0-0.4,0.1-0.7,0.1-1.1c0.2-0.5,0.2-0.5,0.3-0.5c0.2-0.7,0.3-1.7,0.3-2.4c-0.1,0-0.2,0-0.3,0c-0.1-0.4-0.3-0.8-0.4-1.2
			c0-0.5,0.1-0.5,0.2-0.5c0.2-1.3,0.2-1.5,1.4-2.6h-0.1c0.5-0.6,1.2-1.2,1.7-1.8h0.1c1.3-1.6,1.3-1.6,1.9-2.7c-0.1,0-0.1,0-0.2,0
			c0.1-0.3,0.3-0.7,0.4-1c0.4-0.8,0.5-0.8,0.5-0.8C120.8,184.2,121.1,183.5,121.2,182.8L121.2,182.8z"/>
		<path class="st4" d="M86.7,16.8c-0.2,0.1-0.6,0.2-0.8,0.3l0,0c-1.7,0.5-1.7,0.5-1.8,0.5c0.1-0.2,0.3-0.1,0.4-0.2
			c-0.2-0.1-0.4,0.1-0.7,0c0,0,0.6-0.3,2-0.7H86c0.4-0.1,0.8-0.2,1.1-0.3c1-0.2,1.3-0.3,1.3-0.3C88.3,16.3,88.3,16.3,86.7,16.8
			L86.7,16.8z"/>
		<path class="st4" d="M87.8,17.7c-1.6,0.7-1.6,0.6-1.5,0.5c0.1-0.3,0.2-0.4,1.1-0.7c0.3-0.1,0.4-0.1,0.4-0.2c-0.2-0.1-0.5,0-0.7,0
			l0,0c0.2-0.2,2.9-1.2,3.6-1C91.1,16.5,87.9,17.7,87.8,17.7L87.8,17.7L87.8,17.7z"/>
		<path class="st4" d="M80.7,22.7c-0.5,0.3-0.5,0.3-1.1,0.5c-1.7,0.1-1.7,0.1-1.7,0.1c-0.2-0.6,3.4-1.6,3.8-1.7c0.1,0,0.2,0,0.2,0.1
			c-0.3,0.4-0.3,0.4-0.3,0.5C81.6,22.2,81.3,22.4,80.7,22.7L80.7,22.7z"/>
		<path class="st4" d="M88.8,21.6c-0.7,0.4-1.6,0.9-3.1,0.1c-0.2-0.1-0.5-0.3-1.5-0.1c-0.1-0.1-0.3-0.2-0.4-0.3
			c0.2-0.4,0.2-0.4,1.4-1.3c0.3-0.2,0.3-0.6,0.6-0.8c0.1-0.1,0.2-0.2,0.7-0.6c0.7-0.5,1.1-0.8,2.9-1.4c-0.1,0-0.1,0.1-0.2,0.1
			c0.1-0.1,0.3-0.1,0.4-0.2c-0.3,0.1-0.3,0.1-0.8,0.7h-0.1l0,0c-0.1,0.2-0.2,0.4-0.4,0.6c-0.1,0.1-0.2,0.2-0.8,0.6h0.1
			c-0.3,0.2-1.5,1-1.6,1.3c0.2,0.2,0.5,0,0.7,0.1c0.3,0,0.5,0.2,0.7,0.2c0.1,0,0.3,0.1,0.4,0.1c0,0,0.7,0.1,1.1,0.1
			c0.2,0,0.4,0.2,0.3,0.5c-0.1,0-0.1,0-0.2,0C89,21.5,89,21.5,88.8,21.6L88.8,21.6z"/>
		<path class="st4" d="M134.5,33.6c0,0.1,0.2,0.7-0.1,1.5l0,0v0.1c-0.9,0.1-1.4,0.4-1.5,0.7c-0.1,0.7-1.7,1.7-2.5,1.4
			c-0.3-0.1-0.6-0.4-0.8-0.7c-0.2-0.4-0.5-0.7-1.4-0.7c-0.3,0-0.6,0.1-0.9,0.1c-0.1,0-0.3,0-0.5-0.3c-0.2-0.2-2.3-2.1-1.5-3.2
			c0.1-0.1,0.3-0.1,0.4-0.1c1.1,0,1.6,0.3,2.4,0.8c0.3,0,0.5,0,0.8-0.1c0.8-0.3,1.6-0.3,2.3-0.7c0.2-0.1,0.3-0.2,0.4-0.2
			c0,0,0.7,0,2.1,0.7c0.1,0,0.2,0,0.3,0l0.2,0.1C134.3,33.2,134.5,33.4,134.5,33.6L134.5,33.6z"/>
		<path class="st4" d="M47.2,123l-0.3,0.4c-0.5,0.5-1.8,0.2-2.4-0.3c-0.1,0-0.1-0.1-0.2-0.2c0-0.1-0.1-0.1-0.2-0.2
			c-0.1-0.1-0.2-0.3-0.3-0.4c-0.8-0.8-1.6-1.6-2.4-2.5c-0.3-0.4-0.5-0.7-0.7-1.1c-0.5-0.7-2-0.7-3.3-0.8c-2.8-0.2-2.8-0.2-3-0.3
			c-0.2-0.1-0.5-0.3-0.5-1.1c0-0.1,0-0.3,0-0.4c0.1,0,0.2-0.1,0.2-0.1v-0.1c2.6-0.9,3.3-0.9,3.6-0.9c0.7,0.1,1.7,0.2,2.6,0.9
			c0.9,0.7,1.3,1.6,1.9,2.3c-0.1,0-0.3,0-0.4,0c1.2,1.3,2.1,2,2.8,2c0.5,0,1.1,0.6,1.5,1.1c0.1,0,0.3,0,0.4,0
			C47.3,122.6,47.2,122.9,47.2,123L47.2,123z"/>
		<path class="st4" d="M62.8,129.4c0,0.4-0.2,0.6-0.2,0.7c-0.2,0.3-0.7,0.7-0.7,0.7c-0.4,0.2-0.8,0.2-1.1-0.2
			c-0.7-0.8-0.7-3.1,0.5-3.1c0.9,0.1,1.2,1.4,1.2,1.8C62.6,129.3,62.7,129.3,62.8,129.4C62.8,129.3,62.8,129.3,62.8,129.4
			L62.8,129.4z"/>
		<path class="st4" d="M187,73.9c0.2,0.6,0.1,1.2-0.2,1.9c-0.1,0.1-0.3,0.4-0.9,0.1c-1.5-0.7-1.9-3.5-1.2-3.8h0.1
			c0.4,0,0.8,0.4,1.4,1c0.1,0,0.2,0,0.2,0C186.6,73.1,186.8,73.4,187,73.9L187,73.9z"/>
		<path class="st4" d="M178.8,75.5c0.1,0.2,0.1,0.2-0.1,0.7c-0.2,0.6-1,0.4-1.2,0c-0.1-0.2,0-0.7,0.1-0.9c0,0,0-0.1,0.1-0.1l0.1-0.1
			c0-0.1,0-0.1,0.1-0.2s0.1-0.1,0.2-0.1C178.5,74.8,178.8,75.3,178.8,75.5L178.8,75.5z"/>
		<path class="st4" d="M196.3,78.6c0.3,0.9-0.5,1.7-1.2,1.3c-0.1,0-0.1-0.1-0.2-0.2c-0.4-0.3-0.8-0.7-1.2-1s-0.8-0.4-1.1-0.7
			c-0.4-0.3-0.6-0.5-0.7-0.7c-0.6-0.7,0.1-0.8,0.3-0.9h0.1c0.2,0,1.7-0.1,2.1,0c0.5,0.1,0.8,0.6,1.2,0.9c0.1,0,0.1,0,0.2-0.1
			l0.3,0.4C196,77.9,196.2,78.2,196.3,78.6L196.3,78.6z"/>
		<path class="st4" d="M155.1,51.3c0.2,0.4,0.2,0.7,0.2,0.9h-0.1c0,0.4,0,0.8-0.3,1.5c-0.3,0.5-1.4,1.6-1.5,1.7
			c-0.6,0.4-1.2,0.7-2.2-0.3c-0.4-0.4-1.1-1.2-0.8-1.7c0.1-0.3,0.2-0.4,0.1-0.7c-0.3-0.7-1-1.2-1.3-2c-0.1-0.4-0.1-0.4,0.3-1
			c0.2,0,0.3,0,0.5-0.1c0.3-0.1,0.3-0.2,0.3-0.7c0-0.6,0.1-0.9,0.9-1c1.3-0.1,2,0.7,2.5,1.5c0.1,0,0.2,0,0.2,0
			C154.7,50.5,155.1,51.2,155.1,51.3L155.1,51.3z"/>
		<path class="st4" d="M166,53.3c0.3,1.2-0.3,2.2-0.7,2.4c-0.3,0.2-1.1,0.1-2.1-0.1c-1.8-0.3-2-0.2-2.2,0c-0.4,0.3,0,1-0.7,1.2
			c-0.2,0-0.4-0.2-0.4-0.2c-0.2-0.2-0.4-0.5-0.3-1.2c-1-0.2-2.6,1-3.1-0.3c-0.2-0.7,0.7-3.9,1-4.5c0.1-0.2,0.2-0.4,0.2-0.7
			c-0.3-0.4-0.5-0.5-2.2-0.9c-1.3-0.4-2.3-0.7-5.1-3.3c-1.1-1-1.6-2.3-0.7-2.3c1.2,0.1,1.2,0.1,1.2-0.3c0-0.5,0-1.3,0.6-1.5
			c0,0,0,0,1,0.3c0.1,0,0.1,0,2.3,0.1c-0.4,0.1-0.9,0.1-1.3,0.2c1.6-0.1,3,0,3.1,1.6h0.1c-0.1,2-0.1,2,1.1,2.8c-0.1,0-0.2,0-0.3,0
			c0.7,0.6,1.5,1.2,2.2,1.8c0.1,0,0.2,0,0.3,0c1.3,0.9,2.8,1.6,4.1,2.6c-0.1,0-0.2,0-0.3,0c1.4,1.1,1.6,1.5,1.8,1.9h0.1
			c0,0,0,0,0.1,0C166,53.1,166,53.2,166,53.3L166,53.3z"/>
		<path class="st4" d="M215.5,157.4c-0.5,1.3-1.8,3.6-2.6,4.8c-0.1,0-0.1,0.1-0.2,0.1c-0.1-0.1,0-0.6,0.5-1.8h-0.1
			c0.3-0.8,0.6-1.4,1-2.3h0.1c0.2-0.5,0.3-0.7,0.5-1c0.6-0.9,1.1-1,1.1-0.8C215.8,156.3,215.8,156.4,215.5,157.4L215.5,157.4z
			 M209.4,63.6c0.7,1.4-0.6,2.1-0.8,2c-0.1,0-0.1,0-1.5-0.9c0.1,0,0.1-0.1,0.2-0.1c-2.5-1.5-2,1.1-2,1.1c0.2,0.8,0.2,0.8,0.1,1
			c-0.1,0.3-0.3,0.4-1.1,0.5c-0.8,0.2-0.2,1.1-0.6,1.6c-0.1,0-0.1,0-0.2-0.2c-0.4-0.7-0.6-1.4-1-2.1h0.1c-0.6-1.1-1.6-2-2-3.2
			c0,0,0,0-0.1,0c-0.3-0.7-0.4-1.6-0.7-2.4c0,0,0,0,0.1,0c-0.4-1-0.7-1.8-1.3-3.1l-0.1-0.4l0,0c-0.6-1.4-0.2-1.5,0-1.4
			c0.3,0.1,1.9,1.6,3.7,3.5c0.2,0.3,0.3,0.3,0.4,0.3c0.1-0.1,0.3-1.4-1.2-3.6l0,0c-0.8-1.4-0.1-1.5,0-1.5s0.3,0.1,0.8,1.1l0.1,0.4
			c0.2,0.6,0.2,0.7,0.5,0.9c0.7,0.6,1.5,0.9,2.2,1.4C207.1,60.6,208.4,61.6,209.4,63.6L209.4,63.6z M205.9,53.4
			c0.1,0.1,0.2,0.4,0.3,0.6h-0.1c-0.2-0.2-0.3-0.3-0.5-0.5c0,0.5,2.3,3.5,2.4,3.5v-0.1c0.2,0.1,4.3,4.9,8.1,12
			c0.3,0.7,0.6,1.2,0.7,1.7c-0.1,0-0.8-0.5-1.5-1.5c0,0,0,0,0,0.1c-0.4-0.7-0.8-1.3-1.3-2.1l0,0c-0.4-0.7-0.5-0.9-0.7-1.3
			c0-0.3,0.1-0.4-1.1-2.5l0,0l0,0c-0.6-0.9-0.9-1.4-1.5-1.8c0,0,0-0.1,0.1-0.1c-0.3-0.2-0.3-0.2-2.4-2.6c0,0,0,0,0,0.1
			c-0.6-0.7-1-1.1-1.5-1.7l-0.1-0.2l0,0c-0.8-0.9-1.4-1.8-2.3-3.1l0,0c-0.6-0.9-0.6-0.9-0.6-1.1c0.2,0,0.3,0.1,0.5,0l0,0
			c0-0.2,0-0.3-1.1-1.8l0,0c-0.2-0.3-0.4-0.6-0.6-0.8C203.2,50.1,205.9,53.4,205.9,53.4L205.9,53.4z M176.9,34
			c0.1,0.1,0.1,0.1,0.2,0.2l0.2,0.3c-0.1,0.1-0.2,0.1-0.4,0.2c-0.3-0.1-1.2-0.3-2.3-1.2l-0.1-0.2l0,0c-0.2-0.2-0.6-0.6-0.3-0.6
			C174.7,32.7,176.2,33.4,176.9,34L176.9,34z M152.7,16.3C152.7,16.2,152.7,16.2,152.7,16.3c-0.7-0.2-1.7-0.5-2.4-0.7
			c2.8,0.9,7.4,2.4,11.6,4.2l0,0c0.2,0.1,0.2,0.1,0.3,0.1c-0.3-0.1-0.7-0.2-1-0.3c-0.5-0.2-0.6-0.2-0.6-0.2c0.4,0.4,0.4,0.3,0.4,0.3
			c0.7,0.3,1.6,0.7,2.3,1c0.2,0.1,0.2,0.1,0.2,0.1c0.1,0.1,0.1,0.1,0.1,0.1c0.2,0.2,0.5,0.5,0.7,0.7c-0.5-0.1-0.5-0.1-0.5,0l0,0
			c0.5,0.4,1.2,1,1.6,1.6c0.6,0.4,1.5,0.8,2.1,1.2c-0.1,0-0.3-0.1-0.4-0.2l0,0l-0.1-0.1c-0.8-0.4-1.8-0.9-2.6-1.3s-0.8-0.4-0.8-0.4
			l-0.5-0.3c0.1,0.1,0.1,0.1,6.2,3.5l0,0l0,0c-0.6-0.3-1.4-0.7-1.9-0.9c1.2,1.4,1.2,1.4,3.6,2.8c-0.3,0-0.7,0-1,0
			c0.1,0.2,0.2,0.4,0.3,0.6c-0.7-0.2-1.6-0.6-2.3-0.9c-0.5-0.3-0.5-0.2-0.5-0.2c-0.3-0.1-0.7-0.3-1-0.5c0.3,0,0.7-0.1,1.1-0.1
			c-0.5-1.7-1-1.9-4.2-3.2c-0.3-0.1-0.3-0.1-0.4-0.1c-0.3-0.1-0.7-0.3-1-0.4c-0.5,0.3-1.4,0.5-2.1,0.3c-0.8-0.2-0.8-0.3-0.8-0.3
			c-0.7-0.2-0.7-0.2-4.8-1.1h-0.1c-0.8-0.2-1.9-0.4-2.7-0.5c0,0.3,0,0.7-0.1,1c0.1,0.2,0.1,0.2,0.1,0.2c0.4,0.7,1,1.5,1.4,2.1l0,0
			c9.9,18.4,9.9,18.4,13.4,17.1c-0.1-0.3-0.2-0.7-0.4-1c-0.1-0.3-0.1-0.3,0-0.3c-0.1-0.3-0.2-0.7-0.3-1c2.4,1.4,4.1,3.5,6.1,5.3
			c1.1-0.4,1.5-0.6,2.5-2.1c-0.1-0.4-0.3-0.7-0.4-1.1c-0.5-0.6-0.6-0.6-0.6-0.6c-0.4-0.5-1-1.2-1.3-1.8c0,0,0,0,0.1,0
			c-0.3-0.6-0.7-1.4-1-2c-0.7-0.7-0.7-0.7-0.7-0.7c-0.9-0.7-0.9-0.7-2.9-1.3c0.1,0,0.1,0,0.2,0c-1.3-0.9-1.3-0.9-1.7-2
			c0.1-0.3,0.2-0.7,0.3-1c-0.3-0.5-0.7-1-1-1.4c0,0,0,0,0.1,0c-0.6-0.6-1.4-1.2-2.1-1.7c-0.7-0.5-0.7-0.5-0.7-0.5
			c0.3-0.2,0.7-0.4,1-0.6c1.5,0.5,1.6,0.5,2.8,2.4c1.1,2.2,1.1,2.3,6.4,5.6c1.4-2.6,3.6-1,4.7-0.2c-2,1.2-2,1.2-2.3,1.9
			c0.7,0.4,1.6,0.8,2.3,1.1c-0.3,0.2-0.6,0.5-0.9,0.7c0.2,1.4,0.2,1.7,3.2,4.9c-0.2,0.5-0.4,0.6-0.5,0.6c-2.2-0.4-3.1,0.5-3.4,0.7
			h-0.1c-0.8,0.4-0.8,0.4-0.8,0.4l0,0l0,0l0,0l0,0l0,0l0,0l0,0c-0.1,0-0.2,0-0.3,0.1c-0.1,0-0.2,0-0.2,0.1c-0.1,0-0.1,0-0.2,0h-0.1
			c0,0,0,0-0.1,0l0,0l0,0l0,0l-0.5,0.3c-0.5-0.3-0.6-0.2-0.7-0.2c-0.3-0.2-0.6-0.5-0.9-0.7c-0.7-0.7-0.9-0.9-1-1h0.1
			c-1.5-2-1.5-2-2.7-2.1c-0.2,0.3-0.4,0.7-0.6,0.8c1,2.4,1,2.4,4.3,5.1c-0.1,0-0.2,0-0.3,0c-0.7-0.1-1.5-0.1-2.2,0.1
			c-0.1,0.2-0.3,0.6-0.5,0.7l-0.1,0.1c-0.1,0.8-0.1,2-0.2,2.7c-0.2,0.4-0.4,0.5-0.6,0.5c-0.4,0.3-0.9,0.6-1.1,0.9
			c0.2,0.7,0.5,1.7,0.7,2.3c-0.4,0.5-0.4,0.5-4,2.4c-0.3,0.4-0.3,0.4-0.3,0.4c-0.5,0.4-1.3,0.7-1.9,0.9c0,0.3,0,0.7,0,1
			c5.7,1.6,7,2,7.5,7.7c-2.9,2.1-6.3,0.6-9.4,1.2c-1,1.6-0.4,10.9,3.9,14.3c2.7-0.5,2.7-0.5,4.9,2.2c0.2-0.3,0.5-0.6,0.7-0.8
			c0.1-0.2,0.1-0.2,0.2-0.2c0.1-0.4,0.2-0.7,0.2-1.1c0.1-0.1,0.2-0.2,0.4-0.2c3.4,0.2,4.3-1.8,4.7-2.5c0.2-0.5,0.1-0.5,0.1-0.5
			c0.3-0.6,0.7-1.3,0.9-1.9c-0.4-0.7-0.3-0.7-0.2-0.7c-0.9-1.2-1-1.3-0.3-3.2c0.1-0.4,0.1-0.4,0.1-0.4l0.2-0.6
			c0.5-0.5,1.3-0.9,1.9-1.2c0-0.3,0.1-0.7,0.1-0.9c0.1,0,0.1,0,0.2,0c-0.6-2.7-0.6-2.7-0.3-3.5c2.8,0.5,2.8,0.5,3.7,0.4
			c0.2-0.3,0.5-0.7,0.7-1c0.2-0.6,0.8-1.2,1.3-1.6c3,0.9,3,0.9,14.6,11.2c0.5-0.5,0.4-0.5,0.4-0.5c-0.3-0.6-0.7-1.4-1.1-2
			c-0.1-0.4-0.1-0.4,0-0.4c-1.2-1.9-1.2-2-1.4-2.5c0.3-0.1,0.7-0.3,1-0.5c0-0.1,0-0.1,0.1-0.2l0.1-0.2c-0.5-0.3-0.6-0.3-0.7-0.2
			c-1.9-1.3-2.3-1.5-3-1.9c0.1,0,0.2-0.1,0.3-0.1l-0.2-0.1c-1.8-0.9-2-1-3.4-2.1c-0.5-0.6-0.5-0.6-0.6-0.6s-0.2,0-0.2,0
			c-0.6-0.5-1.4-1.1-2-1.5c-0.5-0.5-0.4-0.5-0.3-0.5c-0.5-0.5-1-1.1-1.3-1.7c0.8-0.1,8.1-0.5,18.2,17.8c0.2-0.3,0.4-0.6,0.6-0.8
			c0.1-0.6,0.1-0.6,0.1-0.6c0.1-1.1,0.2-2.2,0.4-3.5c-0.1-0.6-0.1-0.6-0.2-0.6l-0.2-0.6c-0.3-0.6-0.8-1.2-1.3-1.7
			c0.1,0,0.1,0,0.2-0.1c-0.5-0.4-1.1-0.9-1.6-1.3c0.1-0.6,0.2-1.2,0.3-1.8v-0.4l0,0c0.3,0,0.8-0.1,1.1-0.1c3.6,6,3.6,6,6.8,7.9
			c0.3-0.2,0.6-0.5,0.8-0.7c1.2,0.2,1.7,0.3,2.3-1.4c2.2,1.9,3.5,8.9,4,11.5c-0.2,0.3-0.5,0.6-0.7,0.8c-0.2-0.3-0.5-0.6-0.7-0.8
			c-1.6,0.7-1.6,0.7-2.1,5.7l0,0h-0.1c-0.1,0-0.1,0.1-0.2,0.1l-0.1-0.2c0-0.7,0-1.5,0.1-2.1c0.1-0.5,0.1-0.5,0.1-0.5
			c0.2-2.4,0.2-2.4-0.5-3.4c-1.2,0.2-2.3,0.7-3.5,0.6c-0.1,0-0.2,0.1-0.4,0.1c-0.6-0.3-1.4-0.7-2-0.8c-0.5,2-0.1,4-0.3,6
			c-0.3,0.2-0.6,0.5-0.8,0.7c-0.3-0.2-0.7-0.4-1.1-0.5c-0.1-0.2,0-0.2,0.1-0.2c-1.7-0.9-3.4-1.7-5.1-2.7c-0.3,0-0.4,0-0.6,0
			c-3.2-1.1-3.2-1.1-4.2-1.8c0.1,0,0.2,0,0.4-0.1c-2.3-1.6-2.3-1.6-2.7-2.1c0.4-0.7,1-1.5,1.5-2.1c-0.2-0.6-0.6-1.3-0.8-1.9
			c0.1,0,0.2,0,0.2,0l-0.2-0.4c-4.9-6.4-16.8,3-16.9,3.1c0,0,0,0,0.1,0l-0.1,0.1c-3.1,2.6-7.1,4-10.3,6.5l-0.4,0.4
			c-0.6,0.8-1.9,2.6-1.5,7.2c0.1,0.8,0.2,2.1,0,2.9c-0.2,0.7-1.1,1-1.7,1.4c-2.4,1.6-2.4,1.6-7.4,14.4c-2.4,6,3,12.5-1.3,18.4
			l-0.2,0.2l-0.1,0.1c0.9,2.5,0,5.4,1.7,7.7c2.1,3,6.7,3.5,8.2,7.3c2.7,7,5.5,7.8,6.3,7.9c0.2-0.3,0.5-0.6,0.7-0.8
			c-0.1,0-0.1,0-0.2,0l0.2-0.6c0.3-0.4,0.6-0.9,1-1.1c2.8-1.2,6,0,8.7-1.4c2.5-1.3,3.3-4.6,6.6-4.9c0.6-0.1,0.6-0.1,4.3,5.4
			c1.4-0.2,1.6-0.2,3.8-2.4c1.8,1.5,1.9,1.7,1.8,2.7c-0.4,3.6-3.7,6.2-4.4,9.7c-0.7,3.2,1,6.3,0.4,9.5c-0.2,1.2-3.2,7.8-3.3,7.8
			c-11.4,19.8-22.2,25.6-28.5,29c1.9-0.5,5-1.6,7.7-3l0,0c0.7-0.4,1.5-0.7,2.2-1.1c0.3-0.2,0.3-0.2,0.3-0.2c1.3-0.7,2-1,3.7-2.1l0,0
			c0.6-0.4,1.5-0.8,2.1-1.2c0.3-0.2,0.3-0.2,0.4-0.2c1.6-1,1.7-1.1,2.8-1.9c0.3-0.3,0.3-0.3,0.3-0.2c0.5-0.4,1.3-0.9,1.8-1.3
			c0,0,0,0,0.1,0c1.2-0.8,2.4-1.6,3.6-2.4c0.5-0.4,0.5-0.4,0.5-0.4s0,0-0.1,0c0.6-0.5,1.3-1,1.8-1.5c0,0,0,0,0.1,0
			c0.6-0.6,1.5-1.3,2.1-1.8c0.5-0.5,0.5-0.5,0.4-0.5l0.2-0.2c0.3-0.3,0.6-0.6,0.9-0.8c0.8-0.7,0.8-0.7,0.8-0.7
			c1.3-1.1,1.4-1.2,2.6-2.3c0.5-0.5,0.5-0.5,0.5-0.5c0.5-0.5,1.2-1.1,1.8-1.6c0.5-0.5,0.5-0.5,0.5-0.5c1-0.9,1.1-1,2.4-2.4
			c0.7-0.7,0.7-0.7,0.7-0.7c0.5-0.6,1.1-1.2,1.6-1.8c0.2-0.3,0.2-0.3,0.3-0.3l0.3-0.4c0.5-0.6,1.1-1.3,1.5-1.9
			c0.5-0.7,0.5-0.6,0.4-0.6c0.4-0.6,1-1.4,1.5-2l0,0c1.2-1.6,1.2-1.6,2-2.7c0.1-0.2,0.1-0.2,0.1-0.2c0.3-0.6,0.7-1.3,1-1.9
			c0,0,0,0,0.1-0.1c0.4-0.7,1-1.7,1.4-2.3c0.4-0.7,0.3-0.7,0.3-0.7c0.3-0.6,0.7-1.3,1-1.8c0.2-0.3,0.2-0.3,0.2-0.3
			c0.6-1,1.1-2.1,1.7-3c0.2-0.4,0.2-0.4,0.2-0.3c0.4-0.7,0.9-1.5,1.3-2.1c0.2-0.4,0.2-0.4,0.2-0.4c0.6-1.1,0.8-1.4,1.6-2.9
			c0.4-0.8,0.4-0.8,0.4-0.8l0.1-0.2c0.3-0.7,0.7-1.4,1-2.1c0.2-0.4,0.2-0.4,0.2-0.4c0.8-1.7,1-2.1,1.8-3.9l0,0
			c0.3-0.7,0.6-1.4,0.9-2.1c0.4-0.9,0.4-0.9,0.4-0.9c0.6-1.6,0.8-2.1,1.4-4l0,0l0.1-0.2c0.2-0.7,0.4-1.4,0.6-2.1
			c0.1-0.4,0.1-0.4,0.1-0.4c0.5-1.8,0.6-2.2,1-4l0,0c0.1-0.7,0.3-1.5,0.5-2.1c0.1-0.6,0.1-0.6,0.1-0.6c0.3-1.7,0.4-2.2,0.6-3.5
			c0.1-0.5,0.1-0.5,0.1-0.4c0.1-0.6,0.2-1.4,0.3-2.1c0.1-0.7,0.1-0.7,0.1-0.7c0.1-0.7,0.2-1.5,0.2-2.1c-0.4,2.1-0.5,2.2-0.7,3.3l0,0
			v0.1c-0.2,0.7-0.5,1.6-0.7,2.3c-0.1-0.3-0.2-0.7-0.2-1c0.1-0.4,0.1-0.4,0.1-0.4c0.3-2.1,0.3-2.1,0.3-3.4c0-0.5,0-0.4-0.1-0.4
			c0-0.7,0-1.7-0.1-2.3c0,0,0,0,0.1-0.1c-0.1-1.1-0.3-2.3-0.5-3.5c0,0-0.1,0-0.1,0.1c-0.1-0.8-0.1-1.7-0.3-2.4c0,0,0.1,0,0.1-0.1
			v-0.1c-0.2-1.4-0.4-2-0.9-3.4l-0.1,0.1c-0.2-0.6-0.5-1.3-0.7-1.9c0-0.5,0-0.5,0-0.5c-0.2-1.4-0.2-1.4-0.4-3.4
			c-0.1-0.6-0.1-0.6-0.1-0.6c-0.1-0.6-0.2-1.4-0.2-2c-0.1-0.7,0-0.7,0-0.7c-0.3-1.9-0.3-2-0.7-3.3c-0.2-0.5-0.2-0.5-0.3-0.4
			c-0.2-0.7-0.5-1.7-0.8-2.4c0,0,0.1,0,0.1-0.1c-0.3-0.8-0.7-2-1-2.7c-0.4-0.8-0.4-0.8-0.4-0.8c-0.2-0.7-0.6-1.4-0.8-2.1
			c-0.1-0.4-0.1-0.4,0-0.4l-0.2-0.4c0.2-0.3,0.4-0.7,0.5-0.9c0.1,0.1,7.2,11,7,32.5c0.9-1.1,1.7-2.8,1.6-12.5
			c-0.3-4.9-1.1-11.6-1.8-16.5v0.3c0.1,0.4,0.1,0.8,0.2,1.1c0,0.3,0,0.3,0,0.3c-0.2-1.1-0.3-1.5-0.5-2.4c0,0,0,0,0-0.1v-0.1
			c-0.6-2.3-0.6-2.3-0.9-3.3c0,0,0,0,0,0.1c-0.2-0.7-0.5-1.6-0.7-2.2c0,0,0,0,0-0.1c-0.7-1.9-0.7-1.9-1.1-2.9
			c-0.2-0.5-0.2-0.5-0.2-0.5c-0.2-0.7-0.4-1.7-0.6-2.3c1.5,3.2,2.7,7.5,2.7,7.6c-1.1-3.7-2.6-8.7-3.9-12.4
			c-4.4-10.2-4.4-10.2-7.3-15.1c-5.9-9.1-6-9.2-9.7-13.7c-7.2-8-7.4-8.2-11.8-12.1c-8.2-6.7-8.5-6.9-13.8-10.3
			c-8.4-4.9-9.2-5.4-15.6-8.3l-4.8-2l-0.3-0.1c-1.7-0.7-1.7-0.7-2.5-0.9l0,0C154.4,16.9,153.4,16.5,152.7,16.3L152.7,16.3z
			 M152.1,16C152.1,16,152,16,152.1,16c-0.5-0.2-0.9-0.3-1.4-0.5c3.7,1.2,3.7,1.2,4.9,1.7c-0.7-0.3-1.6-0.6-2.3-0.7l-0.3-0.1
			C152.8,16.3,152.4,16.1,152.1,16L152.1,16z"/>
		<path class="st4" d="M144.3,14.1c1.3,0.3,2.3,0.6,3.5,0.9l0,0c0.8,0.2,0.9,0.3,1,0.3c-0.1,0-0.1,0-0.2,0c0.5,0.5,4.3,1.8,6.6,2.5
			l0,0c0.8,0.3,1.6,0.5,2.4,0.7l0,0c1.7,0.7,2.3,0.9,2.6,1.1c0,0-2-0.1-5.9-1.8l-0.1-0.1c-1-0.5-1.9-0.8-2.7-1.1l0,0
			c-2.1-0.8-4.4-1.3-6.5-2.2c0.1,0,0.2,0,0.2,0c-0.1-0.1-0.2-0.2-1.2-0.4c-0.5-0.1-0.8-0.2-0.9-0.3c0.2,0,0.2,0,0.6,0.1l0,0
			L144.3,14.1L144.3,14.1z"/>
		<path class="st4" d="M70.5,38.4c-0.3,0.3-0.6,0.4-0.7,0.5L69.6,39c-0.5,0.2-0.6-0.1-0.4-0.4c0.2-0.5,1.1-0.8,1.4-0.8
			C71,37.8,70.6,38.3,70.5,38.4L70.5,38.4z"/>
		<path class="st4" d="M69.1,37c-0.1,0.1-0.1,0.1-0.4,0.3c-0.5,0.4-0.8-0.1-0.8-0.3c0.1-0.2,0.1-0.2,0.8-0.6
			c0.3-0.1,0.4-0.2,0.6-0.2C69.5,36.4,69.3,36.9,69.1,37L69.1,37z"/>
		<path class="st4" d="M82.9,20.9c-0.5,0.3-0.8,0.3-0.8,0.1c0.1-0.4,1.7-1,2.1-0.9c0.1,0,0,0.2-0.4,0.5h-0.1
			C83.3,20.7,82.9,20.9,82.9,20.9L82.9,20.9z"/>
		<path class="st4" d="M83.6,19.7c-0.1,0.1-0.5,0.2-1.2,0.5l0,0c-1.1,0.4-1.1,0.4-1.7,0.4c0-0.1,0-0.1,0.5-0.3
			c0.5-0.3,0.7-0.4,0.8-0.5c-0.1-0.1-0.4-0.1-0.8,0l0,0c-0.3,0.1-0.5,0.2-1.4,0.6c-0.8,0.3-1.1,0.5-1.2,0.5l0,0
			c0.4-0.3,4.3-1.9,4.7-2h0.1c0.4-0.1,0.4-0.1,1.7,0.2l0,0C84.8,19.2,83.6,19.7,83.6,19.7L83.6,19.7z"/>
		<path class="st4" d="M77.1,23c-0.7,0.4-0.7,0.4-2.4,1.1l0,0c-0.3,0.1-0.7,0.3-1,0.4l-0.1,0.1c-0.2,0-0.3,0-0.3,0
			c0-0.1,0-0.3,2.4-1.7c0.1-0.1,0.2-0.1,0.2-0.1c-0.3-0.1-0.6,0.2-0.9,0c0.2-0.3,1.6-1,2.3-1.2h0.1c0.1,0,0.3-0.1,0.5-0.1l0,0
			c0.1,0,0.1,0.2,0.3,0.2c0.8-0.1,0.8-0.1,1-0.1c0.2,0.1,0.1,0.2,0,0.2C79.1,21.9,78.8,22.2,77.1,23C77.2,23,77.2,23,77.1,23
			L77.1,23z"/>
		<path class="st4" d="M61,145.9c0.3-0.1,0.5-0.1,0.8-0.1s0.5,0.1,0.8,0.2C62,145.9,61.5,145.9,61,145.9L61,145.9z"/>
		<path class="st4" d="M198.7,186.7l-1.6,1.6c0.5-0.5,2.1-2.1,3.6-3.8L198.7,186.7L198.7,186.7z"/>
		<path class="st4" d="M118.2,14.5c0.1,0.1,0.1,0.1,0.2,0.2l0,0c0.4,0.4,0.4,0.4,0.8,2.1l0,0c0.1,0.4,0.1,0.5,0.2,0.9l0,0v0.1
			c0.1,0.6,0.2,0.8,0.5,1.4h-0.1l0.2,0.3c0.3,0.4,0.8,0.5,1.1,0.7c0,0,0,0,0.1,0c0.1,0.8,0.1,0.8,0.4,1.7h-0.1
			c0.2,0.4,0.2,0.5,0.5,1.2h0.1c0.1,0.1,0.1,0.2,0.2,0.4v0.1c0,0.1,0,0.3-0.1,0.3c-0.8,0.2-1.4-0.9-2.3-0.4c0,0.2-0.1,0.6,0.6,1.7
			h-0.1l0.1,0.2c0.2,0.4,0.4,0.7,0.7,1.1c0.1,0,0.1,0,0.2,0l0.1,0.2c0.9,1.3-0.1,1.9-0.6,1.8c-0.4-0.1-0.8-0.7-0.9-1.1
			c-0.1-0.3-0.2-0.9-1.8-1.6l-0.1,0.1c0.1,0.3,0.1,0.4,0.2,0.7h0.1c0.4,1,1.5,1.3,2.1,2c-0.1,0-0.1,0-0.2,0c0.6,0.7,0.6,0.7,0.6,0.7
			c-0.1,0-0.1,0.1-0.2,0.1c-0.3,0.2-0.7-0.1-1.1,0.1c-0.9,0.4-1.4,1.1-2.4,1.4c-0.7,0.2-1.3,0.2-2.3,0.1c-0.6,0-0.6,0-0.8,0.1
			c-0.2,0.3-0.3,0.5-0.7,1.4h-0.1c-0.1,0.2-0.2,0.5-0.3,0.7c-0.4,1-0.4,1-2,0.8c-1.1-0.1-1.1-0.1-2.3,0.7c-1.7,1.1-1.7,1.1-1.6,1.9
			c-0.1,0-0.1,0-0.2,0c0.1,1.6,0.1,1.6-1.5,1.7c-0.5,0.7-0.4,1.7-0.7,2.5c-0.1,0-0.1,0-0.2,0c-0.3,0.9-0.5,1.1-1.2,1.8l0,0l0,0
			c-1.7,1.3-1.8,0.4-2-1.4c-0.8-0.1-1.2,0.9-2.1,0.7c-0.5-1.2-1.8-2-2.2-3.3c-0.5-2.1-0.1-2.3,0.6-2.7l0,0c-2.6-1-0.5-4.2,0.3-5
			c0.5-0.5,0.5-0.5,0.5-0.7c-0.3-0.1-0.3-0.1-0.8-0.2c-0.6-1,1.9-3.2,2.5-3c0,0,0,0,0.1,0l0,0c0,0,0,0,0.1,0c0,0,0,0,0.1,0h0.1h0.1
			h0.1h0.1c0,0.1,0.1,0.5-0.8,1.8h-0.1l-0.1,0.1c-0.1,0.1-0.2,0.3-0.2,0.5c0.1,0.2,0.2,0.3,0.3,0.4c1.1-0.4,1.4-3.5,0.7-3.7
			c-0.4-0.1-0.4-0.1-1.2,0.7c0,0,0,0,0.1,0c-0.8,0.7-1,0.8-1.3,0.9c0.2-1.8,2.5-2.7,2.2-4.7c-0.2-1.3-0.5-1.4-3.1-1.7
			c0-0.1,0-0.2-0.1-0.2c0.1-0.2,0.3-0.5,1.2-1.1c-0.1,0.1-0.3,0.2-0.4,0.3c-0.1,0.1-0.1,0.1-0.1,0.1c-1.4,1-1.8,1.3-2.4,1.4
			c0-0.1,0-0.1-0.1-0.2c1-1.5,1-1.5,1-1.5c-0.1,0-0.1,0-0.2,0l0,0l0,0l0,0l0,0l0,0l0,0l0,0l0,0c0,0-0.1-0.1-0.2-0.1
			c0.2-0.4,0.4-0.6,1-0.7c0.1,0,0,0,0,0c3-0.7,5.4-2.4,8.2-3.4c0.1,0,0.2,0,0.2,0l0,0c0.2,0.1,0.3,0.1,1-0.5
			c0.4-0.3,2.1-1.1,2.9-0.9c0,0.1,0,0.3-0.1,0.4c0.2,0,0.3,0,0.8-0.3c0.6-0.5,1.1-1,1.8-1.4l0,0c-0.1,0.1-0.2,0.3-0.3,0.3l0,0
			c-0.1,0.1-0.2,0.2-0.2,0.3c0.5-0.3,0.8-0.7,1.3-0.9l0,0l0.1-0.1c0.1,0,0.1,0,0.1,0c0.2-0.2,0.4-0.3,0.6-0.5l0,0
			c0.1-0.1,0.1-0.1,0.2-0.2c0,0.1,0,0.1,0,0.2l0,0c0.1,0.1,0.1,0.2,0.2,0.3c-0.2,0.4-0.3,0.5-0.5,0.5l0.1,0.1c0.2,0,0.2,0,0.5-0.5
			l0,0l0.1-0.1c0.1,0,0.1,0,0.2,0.1l0,0c0.3,0.3,0.3,0.3,0.7,0.8l0,0c0.2,0.2,0.2,0.2,0.5,0.7l0,0c0.3,0.4,0.6,0.7,1,1
			c0,0,0,0-0.1,0c0.5,0.5,0.6,0.6,0.9,0.6c0-0.1,0.1-0.2,0.1-0.2c-0.1-0.4-0.4-0.7-0.5-1.1C117.3,13.9,118.1,14.5,118.2,14.5
			L118.2,14.5z"/>
		<path class="st4" d="M44.2,112.9c-0.1,0.7-1.2,1-1.7,0.5c-0.3-0.4-0.3-0.9-0.1-1.2c0.1-0.2,0.1-0.2,0.2-0.3
			c0.1-0.1,0.5-0.3,0.5-0.4c0.1-0.1,0.3-0.1,0.4-0.1c0.3,0.1,0.5,0.2,0.7,0.5c-0.2,0-0.3,0-0.5-0.1
			C44.2,112.3,44.2,112.8,44.2,112.9L44.2,112.9z"/>
		<path class="st4" d="M57.8,129.2c-0.1,0.7-0.2,0.7-0.3,0.7c-0.2,0.2-0.2,0.2-0.2,0.2c-0.1,0-0.3-0.3-0.5-0.6
			c-0.5-0.7-0.6-0.7-1-0.4c-1.8,0.7-1.8,0.7-2.1,0.7c-0.9-0.3-1.2-1.1-2-1.6c-0.2-0.1-0.4-0.2-0.6-0.2c-0.4,0-1.1-0.1-2.4-0.6
			c2.8-3.5,3.6-3.5,5.5-3.4c1.7,0.2,2.7,1.4,3.2,2.1c-0.1,0-0.3,0-0.4,0c0.6,0.9,0.8,1.6,0.8,2.7c0.1,0,0.2,0,0.3,0
			C57.8,129,57.8,129.1,57.8,129.2L57.8,129.2z"/>
		<path class="st4" d="M44.6,130.1c0,0.8-0.3,1-0.9,1.5c-1.2,0.4-1.5-2-1.1-2.9c0.1-0.2,0.1-0.2,0.7-0.7c0.1,0,0.1,0,0.2,0
			C44.2,128.1,44.6,129.4,44.6,130.1L44.6,130.1z"/>
	</g>
</g>
<path class="st0" d="M182.9,68.4L182.9,68.4L182.9,68.4L182.9,68.4"/>
<path class="st0" d="M181.2,68.1c-0.4,0-0.7,0-1.1,0h0.4C180.4,68.1,180.4,68.1,181.2,68.1"/>
<path class="st0" d="M111,36.6L111,36.6C110.6,36.2,110.6,36.2,111,36.6L111,36.6z"/>
<path class="st0" d="M135.9,39.6L135.9,39.6L135.9,39.6L135.9,39.6"/>
<path class="st0" d="M186,62.5c0,0.3-0.4,0.7-0.7,1.4l0,0C185.3,63.5,186,63.2,186,62.5L186,62.5z"/>
<path class="st0" d="M223.7,102C223.3,101.7,223.3,101.7,223.7,102L223.7,102L223.7,102"/>
<path class="st0" d="M221,129.2c0,0,0-0.3-0.4-0.3h-0.4v0.3C220.6,128.9,221,129.2,221,129.2z"/>
<polygon class="st0" points="21.5,115.3 21.8,115.6 21.8,115.6 "/>
<path class="st0" d="M145.2,194.3L145.2,194.3c0,0.3-0.4,0.7-0.4,1l0,0L145.2,194.3z"/>
<path class="st0" d="M144.5,191.6C144.2,191.6,144.2,191.6,144.5,191.6C144.2,191.6,144.2,191.6,144.5,191.6"/>
<path class="st0" d="M144.5,194.3C144.5,194.7,144.5,194.7,144.5,194.3C144.2,194.3,144.2,194.3,144.5,194.3
	C144.2,194,144.5,194.3,144.5,194.3"/>
<path class="st0" d="M68.4,182.4L68.4,182.4l0.4,0.3C68.4,182.7,68.4,182.4,68.4,182.4"/>
<path class="st5" d="M116.3,0.2C52.1,0.2,0,51.3,0,114.4c0,63,116.3,141.1,116.3,141.1s116.3-78.1,116.3-141.1
	C232.5,51.3,180.5,0.2,116.3,0.2z M116.3,218.1c-58.4,0-105.7-46.5-105.7-103.8c0-57.2,47.3-103.7,105.7-103.7S222,57.1,222,114.4
	S174.6,218.1,116.3,218.1z"/>
<rect x="75.3" y="53.5" class="st6" width="118.6" height="42.1"/>
<g class="st7">
	<path class="st0" d="M91.2,104.7h-4.8l-9.3-37.6h4l7.8,33.4H89l7.8-33.4h3.9L91.2,104.7z"/>
	<path class="st0" d="M105.3,104.7V67.1h15.1v3.3h-11.5v13.2h10.8v3.2h-10.8v14.6H121v3.3H105.3z"/>
	<path class="st0" d="M142.8,104.7L136,87.3h-4.8v17.4h-3.7V67.1h9c1.2,0,2.4,0.2,3.6,0.5c1.2,0.3,2.2,0.9,3.1,1.7
		c0.9,0.8,1.6,1.8,2.2,3.1c0.5,1.3,0.8,2.8,0.8,4.7c0,1.6-0.2,3-0.6,4.1s-0.9,2.1-1.6,2.9c-0.7,0.8-1.4,1.4-2.2,1.8
		s-1.6,0.7-2.4,0.8l7.3,18.1H142.8z M142.6,77.3c0-1.3-0.2-2.5-0.6-3.4c-0.4-0.9-0.9-1.6-1.5-2.1c-0.6-0.5-1.3-0.9-2.1-1.1
		c-0.8-0.2-1.6-0.3-2.5-0.3h-4.8v14.1h4.9c2,0,3.6-0.6,4.8-1.9C142,81.3,142.6,79.5,142.6,77.3z"/>
</g>
<rect x="44" y="102.7" class="st6" width="141.8" height="56.4"/>
<g class="st7">
	<path class="st0" d="M76.6,157.3l0.4-28.7h-0.2l-7,28.7H63l-6.8-28.7H56l0.3,28.7h-8.6v-41.8h11.9l6.7,26.9h0.2l6.5-26.9h12.6v41.8
		H76.6z"/>
	<path class="st0" d="M111.8,157.3l-1.7-7.6h-9.4l-1.7,7.6h-9.4l10.1-41.8h11.9l10.1,41.8H111.8z M105.5,124.6h-0.2l-3.5,17.8h7.1
		L105.5,124.6z"/>
	<path class="st0" d="M151.1,128.6c0,2.3-0.4,4.3-1.1,6c-0.7,1.7-1.7,3.1-2.8,4.2c-1.2,1.1-2.5,1.9-4,2.4c-1.5,0.5-3,0.8-4.5,0.8
		h-4.1v15.2h-9.3v-41.8h13c1.5,0,3,0.2,4.5,0.6c1.5,0.4,2.9,1.2,4.1,2.2s2.2,2.4,3,4C150.7,124,151.1,126.1,151.1,128.6z
		 M142.2,128.8c0-1.9-0.5-3.2-1.4-4.1c-0.9-0.8-2-1.2-3.3-1.2h-3v10.9h3c1.3,0,2.4-0.5,3.3-1.4C141.8,132,142.2,130.6,142.2,128.8z"
		/>
	<path class="st0" d="M172.1,157.3l-1.7-7.6H161l-1.7,7.6h-9.4l10.1-41.8h11.9l10.1,41.8H172.1z M165.9,124.6h-0.2l-3.5,17.8h7.1
		L165.9,124.6z"/>
</g>
<ellipse class="st8" cx="116.1" cy="113.3" rx="102.9" ry="100.2"/>
</svg>
