<?xml version="1.0" encoding="utf-8"?>
<!-- Generator: Adobe Illustrator 26.3.1, SVG Export Plug-In . SVG Version: 6.00 Build 0)  -->
<svg version="1.1" id="Capa_1" xmlns="http://www.w3.org/2000/svg" xmlns:xlink="http://www.w3.org/1999/xlink" x="0px" y="0px"
	 viewBox="0 0 30.6 11.2" style="enable-background:new 0 0 30.6 11.2;" xml:space="preserve">
<style type="text/css">
	.st0{fill:#727070;}
</style>
<g>
	<g>
		<path class="st0" d="M0.6,11.2c-0.2,0-0.4-0.1-0.5-0.2c-0.2-0.3-0.1-0.6,0.2-0.8L15,0.2c0.2-0.2,0.6-0.1,0.7,0.1
			c0.2,0.3,0.1,0.7-0.1,0.8l-14.7,10C0.8,11.1,0.7,11.2,0.6,11.2z"/>
	</g>
	<g>
		<path class="st0" d="M30.1,11.2c-0.1,0-0.2,0-0.3-0.1L15,1.1c-0.3-0.2-0.3-0.5-0.2-0.8C15,0,15.3,0,15.6,0.1l14.7,10
			c0.3,0.2,0.3,0.5,0.2,0.8C30.4,11.1,30.2,11.2,30.1,11.2z"/>
	</g>
</g>
</svg>
