<?xml version="1.0" encoding="utf-8"?>
<!-- Generator: Adobe Illustrator 25.4.1, SVG Export Plug-In . SVG Version: 6.00 Build 0)  -->
<svg version="1.1" id="Capa_1" xmlns="http://www.w3.org/2000/svg" xmlns:xlink="http://www.w3.org/1999/xlink" x="0px" y="0px"
	 viewBox="0 0 21.6 23.5" style="enable-background:new 0 0 21.6 23.5;" xml:space="preserve">
<style type="text/css">
	.st0{fill:#FFFFFF;}
	.st1{fill:#EEF2F2;}
	.st2{fill:#FDFDFD;}
	.st3{fill:#ECD5D1;}
	.st4{clip-path:url(#SVGID_00000134234075540538091560000005273003517425998753_);fill:#5B616D;}
</style>
<rect x="1.5" y="1.5" class="st0" width="19" height="6.5"/>
<rect x="1" y="8" class="st1" width="15" height="15"/>
<rect x="16" y="8" class="st2" width="5" height="4"/>
<rect x="16" y="13" class="st3" width="5" height="10"/>
<g>
	<defs>
		<rect id="SVGID_1_" x="0" y="0" width="21.6" height="23.5"/>
	</defs>
	<clipPath id="SVGID_00000106113269784909945850000008036354010537085885_">
		<use xlink:href="#SVGID_1_"  style="overflow:visible;"/>
	</clipPath>
	<path style="clip-path:url(#SVGID_00000106113269784909945850000008036354010537085885_);fill:#5B616D;" d="M6.7,20.1
		c0,0.9,0.7,1.7,1.6,1.7c0.9,0,1.7-0.7,1.7-1.6c0-0.9-0.7-1.7-1.6-1.7C7.4,18.4,6.7,19.2,6.7,20.1 M16.7,10c0,0.9,0.7,1.7,1.6,1.7
		c0.9,0,1.7-0.7,1.7-1.6c0-0.9-0.7-1.7-1.6-1.7C17.4,8.4,16.7,9.1,16.7,10 M11.7,10.1c0,0.9,0.7,1.7,1.6,1.7c0.9,0,1.7-0.8,1.7-1.7
		c0-0.9-0.7-1.7-1.7-1.7C12.4,8.4,11.7,9.1,11.7,10.1 M6.7,10c0,0.9,0.7,1.7,1.6,1.7c0.9,0,1.7-0.7,1.7-1.7c0-0.9-0.7-1.7-1.6-1.7
		C7.4,8.4,6.7,9.1,6.7,10 M1.7,10c0,0.9,0.7,1.7,1.6,1.7C4.2,11.7,5,11,5,10.1c0-0.9-0.7-1.7-1.6-1.7C2.4,8.4,1.7,9.1,1.7,10
		 M11.7,20.1c0,0.9,0.7,1.7,1.6,1.7c0.9,0,1.7-0.7,1.7-1.6c0-0.9-0.7-1.7-1.6-1.7C12.4,18.4,11.7,19.2,11.7,20.1 M1.7,20.1
		c0,0.9,0.7,1.7,1.6,1.7c0.9,0,1.7-0.7,1.7-1.6c0-0.9-0.7-1.7-1.6-1.7C2.5,18.4,1.7,19.2,1.7,20.1 M11.7,15c0,0.9,0.7,1.7,1.6,1.7
		c0.9,0,1.7-0.7,1.7-1.6c0-0.9-0.7-1.7-1.6-1.7C12.4,13.4,11.7,14.1,11.7,15 M6.7,15.1c0,0.9,0.7,1.7,1.6,1.7c0.9,0,1.7-0.7,1.7-1.6
		c0-0.9-0.7-1.7-1.6-1.7C7.4,13.4,6.7,14.1,6.7,15.1 M1.7,15.1c0,0.9,0.7,1.7,1.6,1.7C4.2,16.8,5,16,5,15.1c0-0.9-0.7-1.7-1.6-1.7
		C2.4,13.4,1.7,14.1,1.7,15.1 M16.6,17.6c0,0.8,0,1.6,0,2.5c0,1,0.7,1.7,1.6,1.8c0.9,0,1.7-0.7,1.7-1.7c0-1.6,0-3.3,0-4.9
		c0-1-0.8-1.7-1.7-1.7c-0.9,0-1.6,0.8-1.6,1.7C16.6,16,16.6,16.8,16.6,17.6 M10.8,6.7c2.7,0,5.5,0,8.2,0c0.6,0,1-0.3,1-1
		c0-1,0-2,0-3.1c0-0.7-0.3-1-1-1c-5.4,0-10.9,0-16.3,0c-0.7,0-1,0.3-1,1c0,1,0,2,0,3c0,0.8,0.3,1.1,1,1.1C5.4,6.7,8.1,6.7,10.8,6.7
		 M0,11.7c0-3.2,0-6.5,0-9.7c0-1.3,0.9-2,2-2c5.9,0,11.8,0,17.7,0C21,0,21.6,0.7,21.6,2c0,6.5,0,13,0,19.5c0,1.3-0.9,2-2,2
		c-5.9,0-11.8,0-17.7,0c-1,0-2-0.7-2-2C0.1,18.2,0,15,0,11.7"/>
</g>
</svg>
