<?xml version="1.0" encoding="utf-8"?>
<!-- Generator: Adobe Illustrator 26.3.1, SVG Export Plug-In . SVG Version: 6.00 Build 0)  -->
<svg version="1.1" id="Capa_1" xmlns="http://www.w3.org/2000/svg" xmlns:xlink="http://www.w3.org/1999/xlink" x="0px" y="0px"
	 viewBox="0 0 41.5 154" style="enable-background:new 0 0 41.5 154;" xml:space="preserve">
<style type="text/css">
	.st0{fill:#9D9D9C;}
	.st1{fill:#FFFFFF;}
</style>
<path class="st0" d="M41.5,0C16.5,16.5,0,44.8,0,77s16.5,60.5,41.5,77V0z"/>
<g>
	<path class="st1" d="M31.2,41.1c-0.2,0.1-0.4,0.2-0.6,0.2c-0.2,0.1-0.5,0.1-0.8,0.2c-0.3,0.1-0.6,0.1-0.9,0.1
		c-0.7,0-1.4-0.1-1.9-0.3c-0.6-0.2-1.1-0.5-1.5-0.9c-0.4-0.4-0.8-0.9-1-1.5c-0.2-0.6-0.4-1.3-0.4-2c0-0.8,0.1-1.4,0.4-2
		c0.2-0.6,0.6-1.1,1-1.5c0.4-0.4,1-0.7,1.6-0.9c0.6-0.2,1.3-0.3,2-0.3c0.6,0,1.1,0.1,1.6,0.2c0.5,0.1,0.9,0.3,1.3,0.4
		c-0.1,0.1-0.1,0.3-0.2,0.5c0,0.2-0.1,0.4-0.1,0.5l-0.1,0c-0.1-0.1-0.2-0.2-0.4-0.4c-0.2-0.1-0.3-0.3-0.6-0.4
		c-0.2-0.1-0.5-0.2-0.7-0.3c-0.3-0.1-0.6-0.1-0.9-0.1c-0.5,0-1,0.1-1.5,0.3c-0.4,0.2-0.8,0.4-1.2,0.8c-0.3,0.4-0.6,0.8-0.8,1.3
		s-0.3,1.2-0.3,1.9c0,0.7,0.1,1.4,0.3,1.9s0.4,1,0.8,1.3c0.3,0.4,0.7,0.6,1.2,0.8c0.4,0.2,0.9,0.3,1.5,0.3c0.3,0,0.6,0,0.9-0.1
		c0.3-0.1,0.5-0.2,0.7-0.3c0.2-0.1,0.4-0.2,0.6-0.4c0.2-0.1,0.3-0.2,0.5-0.3l0.1,0.1l-0.1,0.8C31.5,40.9,31.4,41,31.2,41.1z"/>
	<path class="st1" d="M24.7,50c0-0.6,0-1.1-0.1-1.7c0.4,0,0.8,0,1.2,0c0.4,0,0.8,0,1.2,0c0.4,0,0.8,0,1.2,0s0.8,0,1.2,0
		c0,0.1,0,0.3,0,0.4c0,0.1,0,0.3,0,0.4c-0.3,0-0.5,0-0.8-0.1c-0.2,0-0.5,0-0.7-0.1c-0.3,0-0.5,0-0.9,0c-0.3,0-0.7,0-1.1,0
		c0,0.3,0,0.6,0,0.8c0,0.3,0,0.6,0,0.9c0,0.3,0,0.7,0,1c0,0.3,0,0.6,0,0.7c0.4,0,0.7,0,1.1,0c0.3,0,0.6,0,0.9,0s0.5,0,0.7,0
		c0.2,0,0.4,0,0.6,0c0,0.1,0,0.3,0,0.4c0,0.1,0,0.3,0,0.4c-0.2,0-0.5,0-0.8-0.1c-0.3,0-0.6,0-0.9,0c-0.3,0-0.6,0-0.9,0
		c-0.3,0-0.5,0-0.6,0c0,0.1,0,0.2,0,0.3c0,0.1,0,0.2,0,0.4V54v0.8c0,0.5,0,0.9,0,1.3c0,0.3,0,0.6,0,0.7c0.3,0,0.6,0,0.9,0
		c0.3,0,0.7,0,1,0c0.3,0,0.6,0,0.9-0.1c0.3,0,0.5-0.1,0.8-0.1c0,0.1,0,0.1,0,0.2c0,0.1,0,0.1,0,0.2c0,0.1,0,0.3,0,0.3
		c-0.4,0-0.8,0-1.2,0c-0.4,0-0.8,0-1.2,0c-0.4,0-0.8,0-1.2,0s-0.8,0-1.2,0c0-0.6,0.1-1.1,0.1-1.7c0-0.6,0-1.1,0-1.7v-2.3
		C24.7,51.1,24.7,50.5,24.7,50z"/>
	<path class="st1" d="M24.7,67.7c0-0.6,0-1.2,0-1.7c0-0.6,0-1.1-0.1-1.7c0.3,0,0.5,0,0.8,0c0.2,0,0.5,0,0.8,0c0.3,0,0.5,0,0.8,0
		c0.2,0,0.5,0,0.8,0c0.4,0,0.7,0,1.1,0.1c0.3,0.1,0.6,0.2,0.9,0.4c0.3,0.2,0.5,0.4,0.6,0.6c0.1,0.3,0.2,0.6,0.2,1
		c0,0.4-0.1,0.8-0.3,1.1c-0.2,0.3-0.4,0.6-0.7,0.8c-0.3,0.2-0.6,0.4-0.9,0.5c-0.3,0.1-0.6,0.2-0.9,0.2c0.1,0.1,0.3,0.3,0.4,0.6
		s0.4,0.5,0.6,0.8c0.2,0.3,0.5,0.6,0.7,0.9c0.2,0.3,0.5,0.6,0.7,0.9c0.2,0.3,0.4,0.6,0.7,0.8s0.4,0.4,0.5,0.5c-0.1,0-0.3,0-0.4,0
		s-0.3,0-0.4,0c-0.1,0-0.3,0-0.4,0s-0.3,0-0.4,0c-0.1-0.2-0.3-0.5-0.6-0.8c-0.3-0.4-0.6-0.8-0.9-1.2c-0.3-0.4-0.7-0.9-1-1.3
		c-0.3-0.4-0.7-0.8-0.9-1.1h-0.5v1c0,0.6,0,1.2,0,1.7c0,0.6,0,1.1,0.1,1.7c-0.2,0-0.4,0-0.7,0c-0.2,0-0.4,0-0.7,0
		c0-0.6,0.1-1.1,0.1-1.7c0-0.6,0-1.1,0-1.7V67.7z M25.8,68.5c0.1,0,0.3,0,0.4,0.1c0.1,0,0.3,0,0.5,0c0.3,0,0.6,0,0.9-0.1
		c0.3-0.1,0.6-0.2,0.8-0.3c0.2-0.2,0.5-0.4,0.6-0.6c0.2-0.3,0.2-0.6,0.2-1c0-0.3-0.1-0.6-0.2-0.9s-0.3-0.4-0.5-0.5
		c-0.2-0.1-0.4-0.2-0.7-0.3c-0.2,0-0.5-0.1-0.7-0.1c-0.3,0-0.6,0-0.8,0s-0.4,0-0.5,0c0,0.5,0,1-0.1,1.5c0,0.5,0,1,0,1.4V68.5z"/>
	<path class="st1" d="M24.7,83.7c0-0.6,0-1.2,0-1.7c0-0.6,0-1.1-0.1-1.7c0.3,0,0.5,0,0.8,0c0.2,0,0.5,0,0.8,0c0.3,0,0.5,0,0.8,0
		c0.2,0,0.5,0,0.8,0c0.4,0,0.7,0,1.1,0.1c0.3,0.1,0.6,0.2,0.9,0.4c0.3,0.2,0.5,0.4,0.6,0.6c0.1,0.3,0.2,0.6,0.2,1
		c0,0.4-0.1,0.8-0.3,1.1c-0.2,0.3-0.4,0.6-0.7,0.8c-0.3,0.2-0.6,0.4-0.9,0.5c-0.3,0.1-0.6,0.2-0.9,0.2c0.1,0.1,0.3,0.3,0.4,0.6
		c0.2,0.2,0.4,0.5,0.6,0.8c0.2,0.3,0.5,0.6,0.7,0.9c0.2,0.3,0.5,0.6,0.7,0.9c0.2,0.3,0.4,0.6,0.7,0.8c0.2,0.2,0.4,0.4,0.5,0.5
		c-0.1,0-0.3,0-0.4,0s-0.3,0-0.4,0c-0.1,0-0.3,0-0.4,0s-0.3,0-0.4,0c-0.1-0.2-0.3-0.5-0.6-0.8s-0.6-0.8-0.9-1.2
		c-0.3-0.4-0.7-0.9-1-1.3c-0.3-0.4-0.7-0.8-0.9-1.1h-0.5v1c0,0.6,0,1.2,0,1.7c0,0.6,0,1.1,0.1,1.7c-0.2,0-0.4,0-0.7,0
		c-0.2,0-0.4,0-0.7,0c0-0.6,0.1-1.1,0.1-1.7c0-0.6,0-1.1,0-1.7V83.7z M25.8,84.5c0.1,0,0.3,0,0.4,0.1c0.1,0,0.3,0,0.5,0
		c0.3,0,0.6,0,0.9-0.1c0.3-0.1,0.6-0.2,0.8-0.3c0.2-0.2,0.5-0.4,0.6-0.6c0.2-0.3,0.2-0.6,0.2-1c0-0.3-0.1-0.6-0.2-0.9
		c-0.1-0.2-0.3-0.4-0.5-0.5c-0.2-0.1-0.4-0.2-0.7-0.3c-0.2,0-0.5-0.1-0.7-0.1c-0.3,0-0.6,0-0.8,0c-0.2,0-0.4,0-0.5,0
		c0,0.5,0,1-0.1,1.5c0,0.5,0,1,0,1.4V84.5z"/>
	<path class="st1" d="M32.1,105.5c-0.1,0-0.2,0-0.4,0c-0.1,0-0.2,0-0.4,0c-0.1,0-0.2,0-0.4,0s-0.2,0-0.4,0c-0.1-0.2-0.1-0.5-0.3-0.7
		c-0.1-0.3-0.2-0.6-0.4-0.9c-0.1-0.3-0.3-0.6-0.4-1c-0.1-0.3-0.3-0.6-0.4-0.9c-0.3,0-0.6,0-0.9,0c-0.3,0-0.6,0-0.9,0
		c-0.3,0-0.5,0-0.8,0c-0.3,0-0.5,0-0.8,0c-0.3,0.7-0.5,1.4-0.8,2c-0.2,0.6-0.4,1.1-0.5,1.6c-0.2,0-0.3,0-0.5,0c-0.2,0-0.3,0-0.5,0
		c0.7-1.6,1.4-3.1,2.1-4.6c0.7-1.5,1.4-3.1,2.1-4.7h0.3c0.2,0.5,0.4,1.1,0.7,1.7c0.2,0.6,0.5,1.2,0.8,1.8c0.3,0.6,0.5,1.2,0.8,1.8
		c0.3,0.6,0.5,1.2,0.7,1.7c0.2,0.5,0.4,1,0.6,1.4C31.8,104.9,32,105.2,32.1,105.5z M26.2,101.3c0.2,0,0.5,0,0.7,0c0.2,0,0.5,0,0.7,0
		c0.2,0,0.5,0,0.7,0c0.2,0,0.5,0,0.7,0l-1.5-3.4L26.2,101.3z"/>
	<path class="st1" d="M24.7,115.8c0-0.6,0-1.2,0-1.7c0-0.6,0-1.1-0.1-1.7c0.3,0,0.5,0,0.8,0c0.2,0,0.5,0,0.8,0c0.3,0,0.5,0,0.8,0
		c0.2,0,0.5,0,0.8,0c0.4,0,0.7,0,1.1,0.1c0.3,0.1,0.6,0.2,0.9,0.4c0.3,0.2,0.5,0.4,0.6,0.6c0.1,0.3,0.2,0.6,0.2,1
		c0,0.4-0.1,0.8-0.3,1.1c-0.2,0.3-0.4,0.6-0.7,0.8c-0.3,0.2-0.6,0.4-0.9,0.5c-0.3,0.1-0.6,0.2-0.9,0.2c0.1,0.1,0.3,0.3,0.4,0.6
		c0.2,0.2,0.4,0.5,0.6,0.8c0.2,0.3,0.5,0.6,0.7,0.9c0.2,0.3,0.5,0.6,0.7,0.9c0.2,0.3,0.4,0.6,0.7,0.8c0.2,0.2,0.4,0.4,0.5,0.5
		c-0.1,0-0.3,0-0.4,0s-0.3,0-0.4,0c-0.1,0-0.3,0-0.4,0s-0.3,0-0.4,0c-0.1-0.2-0.3-0.5-0.6-0.8s-0.6-0.8-0.9-1.2
		c-0.3-0.4-0.7-0.9-1-1.3c-0.3-0.4-0.7-0.8-0.9-1.1h-0.5v1c0,0.6,0,1.2,0,1.7c0,0.6,0,1.1,0.1,1.7c-0.2,0-0.4,0-0.7,0
		c-0.2,0-0.4,0-0.7,0c0-0.6,0.1-1.1,0.1-1.7c0-0.6,0-1.1,0-1.7V115.8z M25.8,116.5c0.1,0,0.3,0,0.4,0.1c0.1,0,0.3,0,0.5,0
		c0.3,0,0.6,0,0.9-0.1c0.3-0.1,0.6-0.2,0.8-0.3c0.2-0.2,0.5-0.4,0.6-0.6c0.2-0.3,0.2-0.6,0.2-1c0-0.3-0.1-0.6-0.2-0.9
		c-0.1-0.2-0.3-0.4-0.5-0.5c-0.2-0.1-0.4-0.2-0.7-0.3c-0.2,0-0.5-0.1-0.7-0.1c-0.3,0-0.6,0-0.8,0c-0.2,0-0.4,0-0.5,0
		c0,0.5,0,1-0.1,1.5c0,0.5,0,1,0,1.4V116.5z"/>
</g>
</svg>
