<?xml version="1.0" encoding="utf-8"?>
<!-- Generator: Adobe Illustrator 26.3.1, SVG Export Plug-In . SVG Version: 6.00 Build 0)  -->
<svg version="1.1" id="Capa_1" xmlns="http://www.w3.org/2000/svg" xmlns:xlink="http://www.w3.org/1999/xlink" x="0px" y="0px"
	 viewBox="0 0 14 14" style="enable-background:new 0 0 14 14;" xml:space="preserve">
<g>
	<g>
		<path d="M13.7,14H0.3C0.1,14,0,13.9,0,13.7v-3.5C0,10,0.1,9.9,0.3,9.9s0.3,0.1,0.3,0.3v3.2h12.8v-3.2c0-0.2,0.1-0.3,0.3-0.3
			S14,10,14,10.2v3.5C14,13.9,13.9,14,13.7,14z"/>
	</g>
	<g>
		<g>
			<path d="M7,11.7c-0.2,0-0.3-0.1-0.3-0.3V0.3C6.7,0.1,6.8,0,7,0s0.3,0.1,0.3,0.3v11.1C7.3,11.5,7.2,11.7,7,11.7z"/>
		</g>
		<g>
			<path d="M7,11.7c-0.1,0-0.1,0-0.2-0.1L3.3,8.1C3.2,8,3.2,7.8,3.3,7.7c0.1-0.1,0.3-0.1,0.4,0L7,11l3.3-3.3c0.1-0.1,0.3-0.1,0.4,0
				c0.1,0.1,0.1,0.3,0,0.4l-3.5,3.5C7.1,11.6,7.1,11.7,7,11.7z"/>
		</g>
	</g>
</g>
</svg>
