<?xml version="1.0" encoding="utf-8"?>
<!-- Generator: Adobe Illustrator 26.3.1, SVG Export Plug-In . SVG Version: 6.00 Build 0)  -->
<svg version="1.1" id="Capa_1" xmlns="http://www.w3.org/2000/svg" xmlns:xlink="http://www.w3.org/1999/xlink" x="0px" y="0px"
	 viewBox="0 0 14 14" style="enable-background:new 0 0 14 14;" xml:space="preserve">
<g>
	<g>
		<path d="M12.9,14H1.1C0.5,14,0,13.6,0,13V6.1c0-0.6,0.5-1,1.1-1h2.4c0.1,0,0.3,0.1,0.3,0.2S3.6,5.6,3.5,5.6H1.1
			c-0.3,0-0.6,0.2-0.6,0.5V13c0,0.2,0.3,0.5,0.6,0.5H13c0.3,0,0.5-0.2,0.5-0.5V6.1c0-0.3-0.2-0.5-0.5-0.5h-2.5
			c-0.1,0-0.3-0.1-0.3-0.2s0.1-0.2,0.3-0.2h2.4c0.6,0,1.1,0.4,1.1,1v6.9C14,13.5,13.5,14,12.9,14z"/>
	</g>
	<g>
		<g>
			<path d="M7,0c0.2,0,0.3,0.1,0.3,0.3v11.1c0,0.2-0.1,0.3-0.3,0.3s-0.3-0.1-0.3-0.3V0.3C6.7,0.2,6.8,0,7,0z"/>
		</g>
		<g>
			<path d="M7,0c0.1,0,0.1,0,0.2,0.1l3.5,3.5c0.1,0.1,0.1,0.3,0,0.4s-0.3,0.1-0.4,0L7,0.7L3.7,4C3.6,4.1,3.4,4.1,3.3,4
				c-0.1-0.1-0.1-0.3,0-0.4l3.5-3.5C6.9,0.1,6.9,0,7,0z"/>
		</g>
	</g>
</g>
</svg>
