<?xml version="1.0" encoding="utf-8"?>
<!-- Generator: Adobe Illustrator 26.3.1, SVG Export Plug-In . SVG Version: 6.00 Build 0)  -->
<svg version="1.1" id="Capa_1" xmlns="http://www.w3.org/2000/svg" xmlns:xlink="http://www.w3.org/1999/xlink" x="0px" y="0px"
	 viewBox="0 0 7.4 13.9" style="enable-background:new 0 0 7.4 13.9;" xml:space="preserve">
<style type="text/css">
	.st0{fill:#020202;}
</style>
<path class="st0" d="M6.2,0L6.2,0C5.9,0,5.8,0,5.6,0C5.4,0,5.2,0,5,0C4.4,0.1,3.9,0.3,3.4,0.6C3,1,2.7,1.4,2.5,1.9
	C2.3,2.3,2.3,2.8,2.2,3.3v0.1c0,0.3,0,0.6,0,0.9s0,0.6,0,0.9c-0.4,0-0.7,0-1.1,0s-0.7,0-1.1,0c0,0.3,0,0.6,0,0.9c0,0.5,0,1,0,1.6
	c0.2,0,0.4,0,0.6,0s0.4,0,0.6,0s0.3,0,0.5,0s0.3,0,0.5,0c0,0.8,0,1.5-0.1,2.3c0,1.3-0.1,2.5-0.1,3.8c0.4,0.1,0.9,0.1,1.3,0.1
	c0.5,0,0.9,0,1.4-0.1c0-0.8,0-1.5,0.1-2.3c0-0.5,0-1,0-1.5c0-0.8,0-1.5,0.1-2.3c0.2,0,0.4,0,0.6,0c0.2,0,0.4,0,0.5,0s0.3,0,0.4,0
	c0.2,0,0.3,0,0.5,0C7.1,6.9,7.2,6,7.3,5.2c-0.2,0-0.5,0-0.7,0s-0.5,0-0.7,0s-0.3,0-0.5,0s-0.3,0-0.5,0c0-0.2,0-0.4,0-0.6
	s0-0.4,0-0.6c0-0.1,0-0.3,0-0.4c0,0,0,0,0-0.1s0-0.3,0.1-0.4C5.1,3,5.2,2.7,5.4,2.6C5.7,2.4,6,2.3,6.3,2.3h0.1c0.1,0,0.3,0,0.4,0
	h0.1H7h0.1h0.1h0.1h0.1c0-0.1,0-0.3,0-0.4c0-0.3,0-0.6,0-0.9s0-0.5,0-0.8C7.1,0.1,6.7,0,6.2,0z"/>
</svg>
