<?xml version="1.0" encoding="utf-8"?>
<!-- Generator: Adobe Illustrator 26.3.1, SVG Export Plug-In . SVG Version: 6.00 Build 0)  -->
<svg version="1.1" id="Capa_1" xmlns="http://www.w3.org/2000/svg" xmlns:xlink="http://www.w3.org/1999/xlink" x="0px" y="0px"
	 viewBox="0 0 14.8 14.8" style="enable-background:new 0 0 14.8 14.8;" xml:space="preserve">
<style type="text/css">
	.st0{clip-path:url(#SVGID_00000156559840637179107120000007229889471076290730_);fill:none;stroke:#000000;stroke-width:0.7;}
	.st1{clip-path:url(#SVGID_00000075849041604920117910000006926236049667463067_);fill:none;stroke:#000000;stroke-width:0.7;}
</style>
<g>
	<g>
		<defs>
			<rect id="SVGID_1_" y="0.1" width="14.7" height="14.7"/>
		</defs>
		<clipPath id="SVGID_00000119812820123839284390000004797300769644387518_">
			<use xlink:href="#SVGID_1_"  style="overflow:visible;"/>
		</clipPath>
		
			<path style="clip-path:url(#SVGID_00000119812820123839284390000004797300769644387518_);fill:none;stroke:#000000;stroke-width:0.7;" d="
			M12.7,14.4h0.9c0.5,0,0.8-0.4,0.8-0.8v-0.9 M0.4,12.7v0.9c0,0.5,0.4,0.8,0.8,0.8h0.9 M2.1,0.4H1.2c-0.5,0-0.8,0.4-0.8,0.8V2
			 M14.4,2.1V1.1c0-0.5-0.4-0.8-0.8-0.8h-0.9"/>
	</g>
	<g>
		<defs>
			<rect id="SVGID_00000097482814594373404310000005945913618344625852_" y="0.1" width="14.7" height="14.7"/>
		</defs>
		<clipPath id="SVGID_00000155145770737549420620000002191577794179725484_">
			<use xlink:href="#SVGID_00000097482814594373404310000005945913618344625852_"  style="overflow:visible;"/>
		</clipPath>
		
			<path style="clip-path:url(#SVGID_00000155145770737549420620000002191577794179725484_);fill:none;stroke:#000000;stroke-width:0.7;" d="
			M3.3,1.9c-0.8,0-1.4,0.6-1.4,1.4v8.2c0,0.8,0.6,1.4,1.4,1.4h8.2c0.8,0,1.4-0.6,1.4-1.4V3.3c0-0.8-0.6-1.4-1.4-1.4H3.3z"/>
	</g>
</g>
</svg>
