<?xml version="1.0" encoding="utf-8"?>
<!-- Generator: Adobe Illustrator 26.3.1, SVG Export Plug-In . SVG Version: 6.00 Build 0)  -->
<svg version="1.1" id="Capa_1" xmlns="http://www.w3.org/2000/svg" xmlns:xlink="http://www.w3.org/1999/xlink" x="0px" y="0px"
	 viewBox="0 0 53.8 19.7" style="enable-background:new 0 0 53.8 19.7;" xml:space="preserve">
<style type="text/css">
	.st0{fill:#00A6D6;}
	.st1{fill:#FFFFFF;}
</style>
<path class="st0" d="M51.7,19.7H2.1c-1.1,0-2.1-0.9-2.1-2.1V2.1C0,0.9,0.9,0,2.1,0h49.6c1.1,0,2.1,0.9,2.1,2.1v15.6
	C53.8,18.8,52.8,19.7,51.7,19.7z"/>
<g>
	<path class="st1" d="M8.7,14.3V5.4h1v8.8H8.7z M9,4.8l1.2-1.6H11L9.5,4.8H9z"/>
	<path class="st1" d="M12.2,14.3V5.4H13l4.6,7.2V5.4h0.9v8.8h-0.8l-4.6-7.2v7.2H12.2z"/>
	<path class="st1" d="M20.7,14.3V5.4h3.5c0.5,0,1,0.1,1.4,0.3c0.4,0.2,0.7,0.5,0.9,0.9C26.7,7,26.8,7.4,26.9,8s0.2,1.2,0.2,1.9
		c0,0.9-0.1,1.7-0.3,2.4c-0.2,0.7-0.5,1.2-1,1.5c-0.4,0.4-1,0.5-1.6,0.5H20.7z M21.6,13.4h2.5c0.5,0,0.9-0.1,1.2-0.4
		c0.3-0.3,0.5-0.7,0.7-1.2c0.1-0.5,0.2-1.2,0.2-1.9c0-0.7,0-1.2-0.1-1.7c-0.1-0.5-0.2-0.8-0.4-1.1c-0.2-0.3-0.4-0.5-0.6-0.6
		c-0.3-0.1-0.6-0.2-0.9-0.2h-2.5V13.4z"/>
	<path class="st1" d="M29.2,14.3V5.4h1v8.8H29.2z"/>
	<path class="st1" d="M35.4,14.3c-0.5,0-1-0.1-1.4-0.2s-0.7-0.3-1-0.7c-0.3-0.3-0.4-0.8-0.6-1.4s-0.2-1.4-0.2-2.3
		c0-0.9,0.1-1.6,0.2-2.2s0.3-1,0.6-1.4c0.3-0.3,0.6-0.6,1-0.7s0.9-0.2,1.4-0.2c0.2,0,0.5,0,0.8,0c0.3,0,0.6,0.1,0.9,0.1
		c0.3,0,0.6,0.1,0.8,0.2v0.7c-0.1,0-0.3,0-0.6-0.1s-0.5,0-0.8-0.1c-0.3,0-0.6,0-1,0c-0.4,0-0.8,0-1.1,0.1c-0.3,0.1-0.5,0.3-0.7,0.5
		c-0.2,0.3-0.3,0.6-0.4,1.1c-0.1,0.5-0.1,1.1-0.1,1.8c0,0.8,0,1.4,0.1,1.9c0.1,0.5,0.2,0.9,0.4,1.1c0.2,0.3,0.4,0.4,0.7,0.5
		c0.3,0.1,0.7,0.1,1.1,0.1c0.6,0,1.1,0,1.5,0c0.4,0,0.7-0.1,0.9-0.1v0.7c-0.2,0.1-0.5,0.1-0.8,0.1s-0.6,0.1-0.9,0.1
		C36,14.3,35.7,14.3,35.4,14.3z"/>
	<path class="st1" d="M41.7,14.3c-0.2,0-0.4,0-0.6-0.1c-0.2,0-0.4-0.1-0.6-0.2c-0.2-0.1-0.3-0.3-0.5-0.5c-0.1-0.2-0.2-0.5-0.2-0.9
		V7.2c0-0.3,0-0.6,0.2-0.9c0.1-0.2,0.2-0.4,0.4-0.5c0.2-0.1,0.4-0.2,0.6-0.3c0.2-0.1,0.4-0.1,0.6-0.1c0.5,0,1,0,1.4,0
		c0.4,0,0.8,0,1.2,0c0.4,0,0.8,0,1.1,0v0.8h-3.5c-0.3,0-0.6,0.1-0.7,0.3c-0.2,0.2-0.3,0.4-0.3,0.8v2.1l3.9,0.1v0.7l-3.9,0.1v2.1
		c0,0.3,0,0.5,0.2,0.7c0.1,0.2,0.2,0.3,0.4,0.3s0.3,0.1,0.5,0.1h3.4v0.8c-0.4,0-0.8,0-1.2,0.1c-0.4,0-0.8,0-1.2,0
		C42.5,14.3,42.1,14.3,41.7,14.3z"/>
</g>
</svg>
