<?xml version="1.0" encoding="utf-8"?>
<!-- Generator: Adobe Illustrator 26.2.1, SVG Export Plug-In . SVG Version: 6.00 Build 0)  -->
<svg version="1.1" id="Capa_1" xmlns="http://www.w3.org/2000/svg" xmlns:xlink="http://www.w3.org/1999/xlink" x="0px" y="0px"
	 viewBox="0 0 146.9 83.7" style="enable-background:new 0 0 146.9 83.7;" xml:space="preserve">
<style type="text/css">
	.st0{fill:#8FA4BB;}
	.st1{enable-background:new    ;}
	.st2{fill:#FFFFFF;}
</style>
<polygon class="st0" points="0,0 0,83.7 74.7,79.3 146.9,83.7 146.9,0 "/>
<g>
	<g class="st1">
		<path class="st2" d="M14.5,33.3V29h3.1v4.3h4v3.2h-3.9v4.3h-3.1v-4.3h-4v-3.2H14.5z"/>
	</g>
	<g class="st1">
		<path class="st2" d="M25.1,43.6V28.4h1.3v15.2H25.1z"/>
	</g>
	<g class="st1">
		<path class="st2" d="M35.1,43.6l-4.8-12.7h-0.1v12.7h-1.3V28.4h1.7l4.8,12.7h0.1V28.4h1.2v15.2H35.1z"/>
	</g>
	<g class="st1">
		<path class="st2" d="M40.6,29.8v5.5h3.8v1.3h-3.8v7.1h-1.3V28.4h5.5v1.4H40.6z"/>
	</g>
	<g class="st1">
		<path class="st2" d="M55.1,36c0,1.2-0.1,2.3-0.3,3.3s-0.5,1.8-0.9,2.5S53,43,52.5,43.4c-0.6,0.4-1.2,0.6-1.9,0.6s-1.3-0.2-1.9-0.6
			s-1-0.9-1.4-1.6c-0.4-0.7-0.7-1.5-0.9-2.5s-0.3-2.1-0.3-3.3s0.1-2.3,0.3-3.2c0.2-1,0.5-1.8,0.9-2.5s0.9-1.2,1.4-1.6
			c0.6-0.4,1.2-0.6,1.9-0.6s1.3,0.2,1.9,0.6c0.6,0.4,1,0.9,1.4,1.6s0.7,1.5,0.9,2.5C55,33.8,55.1,34.8,55.1,36z M53.7,36
			c0-0.9-0.1-1.8-0.2-2.6c-0.1-0.8-0.3-1.5-0.6-2.1s-0.6-1.1-1-1.4s-0.8-0.5-1.3-0.5s-1,0.2-1.4,0.5s-0.7,0.8-1,1.4
			s-0.5,1.3-0.6,2.1s-0.2,1.7-0.2,2.6s0.1,1.8,0.2,2.6c0.1,0.8,0.3,1.5,0.6,2.1s0.6,1.1,1,1.4s0.9,0.5,1.4,0.5s1-0.2,1.4-0.5
			s0.7-0.8,1-1.4c0.3-0.6,0.5-1.3,0.6-2.1C53.6,37.8,53.7,36.9,53.7,36z"/>
		<path class="st2" d="M63.2,43.6l-2.5-7h-1.8v7h-1.3V28.4h3.3c0.5,0,0.9,0.1,1.3,0.2s0.8,0.4,1.1,0.7s0.6,0.7,0.8,1.2
			c0.2,0.5,0.3,1.1,0.3,1.9c0,0.6-0.1,1.2-0.2,1.7s-0.3,0.9-0.6,1.2c-0.2,0.3-0.5,0.6-0.8,0.7c-0.3,0.2-0.6,0.3-0.9,0.3l2.7,7.3
			C64.6,43.6,63.2,43.6,63.2,43.6z M63.1,32.5c0-0.5-0.1-1-0.2-1.4s-0.3-0.7-0.5-0.9c-0.2-0.2-0.5-0.4-0.8-0.4s-0.6-0.1-0.9-0.1H59
			v5.7h1.8c0.7,0,1.3-0.3,1.7-0.8C62.9,34.1,63.1,33.4,63.1,32.5z"/>
	</g>
	<g class="st1">
		<path class="st2" d="M75.1,43.6V30.4H75l-3.4,13.2h-1.3l-3.2-13.2H67v13.2h-1.3V28.4h2L71,41.2h0.1l3.3-12.8h2.1v15.2
			C76.5,43.6,75.1,43.6,75.1,43.6z"/>
	</g>
	<g class="st1">
		<path class="st2" d="M85.2,43.6l-0.8-3.8h-4.2l-0.9,3.8h-1.4l3.4-15.2h1.8l3.4,15.2H85.2z M82.3,29.8L82.3,29.8l-2,8.8h3.8
			L82.3,29.8z"/>
	</g>
	<g class="st1">
		<path class="st2" d="M93.7,43.5c-0.6,0.4-1.2,0.5-1.9,0.5c-0.7,0-1.4-0.2-2-0.6s-1.1-1-1.5-1.7s-0.7-1.5-0.9-2.5
			c-0.2-1-0.3-2-0.3-3.2c0-1.1,0.1-2.2,0.3-3.2c0.2-1,0.5-1.8,0.9-2.5s0.9-1.3,1.5-1.7c0.6-0.4,1.2-0.6,2-0.6c0.6,0,1.2,0.2,1.8,0.5
			c0.6,0.3,1,0.8,1.4,1.4l-0.9,1c-0.3-0.5-0.6-0.9-1-1.1s-0.8-0.4-1.2-0.4c-0.6,0-1.1,0.2-1.5,0.5s-0.8,0.8-1,1.4s-0.5,1.3-0.6,2.1
			s-0.2,1.7-0.2,2.6c0,0.9,0.1,1.8,0.2,2.5c0.1,0.8,0.4,1.5,0.6,2.1c0.3,0.6,0.6,1.1,1,1.4c0.4,0.4,0.9,0.5,1.5,0.5
			c0.5,0,0.9-0.2,1.3-0.5s0.7-0.7,1-1.2l0.8,1C94.7,42.6,94.2,43.1,93.7,43.5z"/>
	</g>
	<g class="st1">
		<path class="st2" d="M96.5,43.6V28.4h1.4v15.2H96.5z"/>
	</g>
	<g class="st1">
		<path class="st2" d="M109,36c0,1.2-0.1,2.3-0.3,3.3c-0.2,1-0.5,1.8-0.9,2.5s-0.9,1.2-1.4,1.6c-0.6,0.4-1.2,0.6-1.9,0.6
			s-1.3-0.2-1.9-0.6s-1-0.9-1.4-1.6c-0.4-0.7-0.7-1.5-0.9-2.5c-0.2-1-0.3-2.1-0.3-3.3s0.1-2.3,0.3-3.2c0.2-1,0.5-1.8,0.9-2.5
			s0.9-1.2,1.4-1.6c0.6-0.4,1.2-0.6,1.9-0.6c0.7,0,1.3,0.2,1.9,0.6s1,0.9,1.4,1.6s0.7,1.5,0.9,2.5S109,34.8,109,36z M107.6,36
			c0-0.9-0.1-1.8-0.2-2.6s-0.3-1.5-0.6-2.1c-0.3-0.6-0.6-1.1-1-1.4s-0.8-0.5-1.3-0.5s-1,0.2-1.4,0.5s-0.7,0.8-1,1.4
			s-0.5,1.3-0.6,2.1s-0.2,1.7-0.2,2.6s0.1,1.8,0.2,2.6s0.3,1.5,0.6,2.1c0.3,0.6,0.6,1.1,1,1.4c0.4,0.3,0.9,0.5,1.4,0.5
			s1-0.2,1.4-0.5s0.7-0.8,1-1.4c0.3-0.6,0.5-1.3,0.6-2.1C107.5,37.8,107.6,36.9,107.6,36z M104.4,27.2h-1.1l1.7-3.1h1.4L104.4,27.2z
			"/>
	</g>
	<g class="st1">
		<path class="st2" d="M117.1,43.6l-4.8-12.7h-0.1v12.7h-1.3V28.4h1.7l4.7,12.7h0.1V28.4h1.2v15.2H117.1z"/>
	</g>
	<g class="st1">
		<path class="st2" d="M18.3,65.6l-1.1-1.9c-0.3,0.6-0.6,1.1-1.1,1.6C15.6,65.7,15,66,14.2,66c-1,0-1.8-0.4-2.4-1.1
			c-0.6-0.8-0.9-1.8-0.9-3.2c0-1.1,0.2-2,0.7-2.7c0.4-0.7,1-1.3,1.7-1.8c-0.4-0.7-0.7-1.3-0.9-1.8s-0.2-1.1-0.2-1.7
			c0-0.6,0.1-1.1,0.2-1.5c0.1-0.5,0.4-0.8,0.6-1.2c0.3-0.3,0.6-0.6,0.9-0.7c0.4-0.2,0.8-0.3,1.2-0.3c0.8,0,1.5,0.3,2,0.9
			c0.5,0.6,0.8,1.4,0.8,2.5c0,0.5-0.1,1-0.2,1.4s-0.3,0.8-0.6,1.1c-0.2,0.3-0.5,0.6-0.8,0.9c-0.3,0.3-0.6,0.5-1,0.8l1.9,3.2l1.1-3.3
			H20l-1.9,4.7l2.2,3.5L18.3,65.6L18.3,65.6z M13.9,58.4c-0.2,0.1-0.4,0.3-0.6,0.5s-0.3,0.4-0.5,0.6c-0.1,0.2-0.3,0.5-0.3,0.8
			c-0.1,0.3-0.1,0.7-0.1,1c0,0.9,0.2,1.6,0.5,2.1c0.4,0.5,0.8,0.8,1.4,0.8c0.2,0,0.5-0.1,0.7-0.2s0.4-0.3,0.6-0.4
			c0.2-0.2,0.3-0.4,0.4-0.6c0.1-0.2,0.2-0.5,0.3-0.7L13.9,58.4z M16.3,53.5c0-0.6-0.1-1.1-0.3-1.5s-0.5-0.6-0.9-0.6s-0.7,0.2-1,0.6
			c-0.2,0.4-0.4,0.9-0.4,1.5c0,0.5,0.1,1,0.2,1.4s0.4,0.9,0.6,1.4c0.5-0.3,0.9-0.7,1.2-1.2C16.1,54.8,16.3,54.2,16.3,53.5z"/>
	</g>
	<g class="st1">
		<path class="st2" d="M31.8,65.6v-6.4h-3.5v6.4h-3.4V50.4h3.4v5.8h3.5v-5.8h3.4v15.2H31.8z"/>
		<path class="st2" d="M51.8,58c0,1.2-0.1,2.3-0.4,3.3c-0.3,1-0.7,1.8-1.2,2.5s-1.1,1.2-1.8,1.6S46.9,66,46,66s-1.7-0.2-2.4-0.6
			s-1.3-0.9-1.8-1.6s-0.9-1.5-1.2-2.5s-0.4-2.1-0.4-3.3s0.1-2.3,0.4-3.3c0.3-1,0.6-1.8,1.1-2.5s1.1-1.2,1.8-1.6
			c0.7-0.4,1.5-0.6,2.4-0.6s1.7,0.2,2.4,0.6c0.7,0.4,1.3,0.9,1.8,1.6c0.5,0.7,0.9,1.5,1.2,2.5C51.7,55.7,51.8,56.8,51.8,58z
			 M48.4,58c0-0.7-0.1-1.3-0.1-1.8c-0.1-0.6-0.2-1.1-0.4-1.5s-0.4-0.7-0.7-1c-0.3-0.2-0.6-0.4-1-0.4s-0.7,0.1-1,0.4s-0.5,0.6-0.7,1
			s-0.3,0.9-0.4,1.5C44,56.8,44,57.4,44,58c0,0.7,0,1.3,0.1,1.8c0.1,0.6,0.2,1.1,0.4,1.5s0.4,0.7,0.7,1c0.3,0.2,0.6,0.4,1,0.4
			s0.7-0.1,1-0.4c0.3-0.2,0.5-0.6,0.7-1s0.3-0.9,0.4-1.5C48.3,59.3,48.4,58.6,48.4,58z"/>
	</g>
	<g class="st1">
		<path class="st2" d="M63,53.3v12.3h-3.3V53.3h-2.8v-2.9h8.9v2.9H63z"/>
	</g>
	<g class="st1">
		<path class="st2" d="M70.8,65.6V50.4h7.3v3h-4v3h3.7v2.8h-3.7v3.3h4.3v3.1H70.8z"/>
	</g>
	<g class="st1">
		<path class="st2" d="M84.1,65.6V50.4h3.5v12h4v3.2H84.1z"/>
	</g>
	<g class="st1">
		<path class="st2" d="M96.8,65.6V50.4h7.3v3h-4v3h3.7v2.8h-3.7v3.3h4.3v3.1H96.8z"/>
	</g>
	<g class="st1">
		<path class="st2" d="M116.5,54c-0.3-0.3-0.6-0.5-0.9-0.7s-0.7-0.2-1.1-0.2s-0.7,0.1-1,0.4c-0.3,0.2-0.5,0.6-0.5,1.2
			c0,0.5,0.2,0.8,0.5,1.1s0.8,0.6,1.4,0.9c0.3,0.2,0.7,0.4,1.1,0.6s0.7,0.5,1,0.9s0.6,0.8,0.8,1.2c0.2,0.5,0.3,1.1,0.3,1.7
			c0,0.8-0.1,1.5-0.4,2.2c-0.3,0.6-0.6,1.1-1,1.5s-0.9,0.7-1.5,0.9c-0.6,0.2-1.2,0.3-1.8,0.3c-0.9,0-1.7-0.2-2.5-0.5
			c-0.7-0.3-1.3-0.7-1.8-1.2l1.7-2.6c0.3,0.3,0.7,0.6,1.1,0.8s0.9,0.3,1.3,0.3s0.8-0.1,1-0.4c0.3-0.3,0.4-0.7,0.4-1.1
			c0-0.5-0.2-0.9-0.5-1.2s-0.8-0.6-1.5-0.9c-0.4-0.2-0.8-0.4-1.2-0.7s-0.7-0.5-1-0.9c-0.3-0.3-0.5-0.7-0.6-1.2
			c-0.2-0.5-0.2-1-0.2-1.6c0-0.8,0.1-1.6,0.4-2.2c0.3-0.6,0.6-1.1,1.1-1.5s0.9-0.7,1.5-0.9c0.5-0.2,1.1-0.3,1.7-0.3
			c0.8,0,1.6,0.1,2.2,0.4c0.7,0.3,1.2,0.6,1.6,1.1L116.5,54z"/>
	</g>
</g>
</svg>
