<?xml version="1.0" encoding="utf-8"?>
<!-- Generator: Adobe Illustrator 26.2.1, SVG Export Plug-In . SVG Version: 6.00 Build 0)  -->
<svg version="1.1" id="Capa_1" xmlns="http://www.w3.org/2000/svg" xmlns:xlink="http://www.w3.org/1999/xlink" x="0px" y="0px"
	 viewBox="0 0 146.4 82.5" style="enable-background:new 0 0 146.4 82.5;" xml:space="preserve">
<style type="text/css">
	.st0{fill:#B3BACE;}
	.st1{enable-background:new    ;}
	.st2{fill:#FFFFFF;}
</style>
<polygon class="st0" points="0,0 0,82.5 74.4,76.9 146.4,82.5 146.4,0 "/>
<g class="st1">
	<path class="st2" d="M17.7,63.4V48.2h3v15.2H17.7z"/>
	<path class="st2" d="M30.3,51.1v12.3h-2.9V51.1H25v-2.9h7.7v2.9H30.3z"/>
	<path class="st2" d="M36.9,63.4V48.2h3v15.2H36.9z"/>
	<path class="st2" d="M51.1,63.4L48,54.1h-0.1l0.1,9.3h-2.7V48.2h3.3l3.1,9.4l0,0v-9.4h2.6v15.2C54.3,63.4,51.1,63.4,51.1,63.4z"/>
	<path class="st2" d="M59.6,63.4V48.2H66v3h-3.6v3h3.3V57h-3.3v3.3h3.8v3.1C66.2,63.4,59.6,63.4,59.6,63.4z"/>
	<path class="st2" d="M76.6,63.4l-1.8-6.1h-0.9v6.1H71V48.2h4.3c1.3,0,2.3,0.4,3,1.1c0.7,0.8,1.1,1.9,1.1,3.4c0,0.6-0.1,1.1-0.2,1.5
		s-0.3,0.8-0.4,1.1c-0.2,0.3-0.4,0.6-0.6,0.8s-0.5,0.4-0.7,0.5l2.3,6.8C79.8,63.4,76.6,63.4,76.6,63.4z M76.4,52.9
		c0-0.4,0-0.7-0.1-0.9s-0.2-0.4-0.4-0.6c-0.1-0.1-0.3-0.2-0.5-0.3c-0.2,0-0.4-0.1-0.5-0.1H74v3.8h0.9c0.4,0,0.8-0.2,1.1-0.5
		S76.4,53.6,76.4,52.9z"/>
	<path class="st2" d="M90.1,63.4l-0.5-2.8h-3l-0.5,2.8h-3l3.2-15.2h3.8l3.2,15.2H90.1z M88.1,51.5L88.1,51.5L86.9,58h2.3L88.1,51.5z
		"/>
	<path class="st2" d="M103,63.4l-1.8-6.1h-0.9v6.1h-2.9V48.2h4.3c1.3,0,2.3,0.4,3,1.1c0.7,0.8,1.1,1.9,1.1,3.4
		c0,0.6-0.1,1.1-0.2,1.5s-0.3,0.8-0.4,1.1c-0.2,0.3-0.4,0.6-0.6,0.8s-0.4,0.3-0.7,0.4l2.3,6.8H103V63.4z M102.8,52.9
		c0-0.4,0-0.7-0.1-0.9s-0.2-0.4-0.4-0.6c-0.1-0.1-0.3-0.2-0.5-0.3c-0.2,0-0.4-0.1-0.5-0.1h-0.9v3.8h0.9c0.4,0,0.8-0.2,1.1-0.5
		S102.8,53.6,102.8,52.9z"/>
	<path class="st2" d="M110.6,63.4V48.2h3v15.2H110.6z"/>
	<path class="st2" d="M128.7,55.7c0,1.2-0.1,2.3-0.4,3.3c-0.2,1-0.6,1.8-1,2.5s-1,1.2-1.6,1.6s-1.3,0.6-2.1,0.6s-1.5-0.2-2.1-0.6
		s-1.2-0.9-1.6-1.6c-0.4-0.7-0.8-1.5-1-2.5s-0.4-2.1-0.4-3.3s0.1-2.3,0.3-3.3s0.6-1.8,1-2.5s1-1.2,1.6-1.6c0.6-0.4,1.3-0.6,2.2-0.6
		c0.8,0,1.5,0.2,2.1,0.6c0.6,0.4,1.2,0.9,1.6,1.6c0.4,0.7,0.8,1.5,1,2.5C128.6,53.4,128.7,54.5,128.7,55.7z M125.6,55.7
		c0-0.7,0-1.3-0.1-1.8c-0.1-0.6-0.2-1.1-0.4-1.5c-0.2-0.4-0.4-0.7-0.6-1S124,51,123.6,51s-0.6,0.1-0.9,0.4c-0.3,0.2-0.5,0.6-0.6,1
		c-0.2,0.4-0.3,0.9-0.4,1.5s-0.1,1.2-0.1,1.8s0,1.3,0.1,1.8c0.1,0.6,0.2,1.1,0.4,1.5c0.2,0.4,0.4,0.7,0.6,1c0.3,0.2,0.6,0.4,0.9,0.4
		s0.6-0.1,0.9-0.4s0.5-0.6,0.6-1c0.2-0.4,0.3-0.9,0.4-1.5C125.5,57,125.6,56.4,125.6,55.7z"/>
</g>
<g class="st1">
	<path class="st2" d="M59.8,30.6h1.4l3.3,9.7l0,0l3.4-9.7h1.3l-4.1,11.8h-1.2L59.8,30.6z"/>
	<path class="st2" d="M70.4,30.6h6.7v1.3h-5.4v3.7h5.1v1.3h-5.1v4.2h5.7v1.3h-6.9L70.4,30.6L70.4,30.6z"/>
	<path class="st2" d="M79.3,30.6h2.8c2.1,0,4.2,0.3,4.2,3.2c0,1.7-1,2.8-2.7,3.1l3,5.4h-1.5L82.2,37h-1.6v5.3h-1.3
		C79.3,42.3,79.3,30.6,79.3,30.6z M80.6,35.8h1.1c1.4,0,3.2,0,3.2-1.9c0-1.7-1.3-1.9-2.6-1.9h-1.8v3.8H80.6z"/>
</g>
</svg>
