<?xml version="1.0" encoding="utf-8"?>
<!-- Generator: Adobe Illustrator 26.3.1, SVG Export Plug-In . SVG Version: 6.00 Build 0)  -->
<svg version="1.1" id="Capa_1" xmlns="http://www.w3.org/2000/svg" xmlns:xlink="http://www.w3.org/1999/xlink" x="0px" y="0px"
	 viewBox="0 0 14 14" style="enable-background:new 0 0 14 14;" xml:space="preserve">
<style type="text/css">
	.st0{fill-rule:evenodd;clip-rule:evenodd;}
</style>
<path class="st0" d="M10.1,8.6c-0.1-0.1-0.4-0.2-0.6,0C9.3,8.4,9.1,8.2,9,8.1c0.8-0.9,1.2-2,1.2-3.2C10.2,2.2,7.9,0,5.1,0
	S0,2.2,0,4.9s2.3,4.9,5.1,4.9c1.2,0,2.2-0.4,3.1-1C8.4,9,8.5,9.1,8.7,9.3c-0.2,0.2-0.2,0.5,0,0.7c1.1,1.2,2.5,2.5,3.6,3.7
	c0.4,0.4,1,0.4,1.4,0s0.4-1,0-1.3C12.6,11.2,11.3,9.8,10.1,8.6z M0.9,4.8c0-2.2,1.9-4.1,4.2-4.1s4.2,1.8,4.2,4.1
	c0,2.2-1.9,4.1-4.2,4.1S0.9,7.1,0.9,4.8z"/>
</svg>
