<?xml version="1.0" encoding="utf-8"?>
<!-- Generator: Adobe Illustrator 26.3.1, SVG Export Plug-In . SVG Version: 6.00 Build 0)  -->
<svg version="1.1" id="Capa_1" xmlns="http://www.w3.org/2000/svg" xmlns:xlink="http://www.w3.org/1999/xlink" x="0px" y="0px"
	 viewBox="0 0 41.5 83.6" style="enable-background:new 0 0 41.5 83.6;" xml:space="preserve">
<style type="text/css">
	.st0{fill:#575756;}
</style>
<g>
	<g>
		<path class="st0" d="M38,24.2c-0.9,0-1.8-0.3-2.5-1L20.7,8.5L6,23.2c-1.4,1.4-3.6,1.4-5,0c-1.4-1.4-1.4-3.6,0-5L18.3,1
			c1.4-1.4,3.6-1.4,5,0l17.2,17.2c1.4,1.4,1.4,3.6,0,5C39.8,23.9,38.9,24.2,38,24.2z"/>
	</g>
</g>
<g>
	<g>
		<path class="st0" d="M20.7,83.6c-0.9,0-1.8-0.3-2.5-1L1,65.3c-1.4-1.4-1.4-3.6,0-5c1.4-1.4,3.6-1.4,5,0l14.8,14.8l14.8-14.8
			c1.4-1.4,3.6-1.4,5,0c1.4,1.4,1.4,3.6,0,5L23.2,82.5C22.5,83.2,21.6,83.6,20.7,83.6z"/>
	</g>
</g>
<circle class="st0" cx="20.4" cy="40.6" r="10.3"/>
</svg>
