<?xml version="1.0" encoding="utf-8"?>
<!-- Generator: Adobe Illustrator 26.3.1, SVG Export Plug-In . SVG Version: 6.00 Build 0)  -->
<svg version="1.1" id="Capa_1" xmlns="http://www.w3.org/2000/svg" xmlns:xlink="http://www.w3.org/1999/xlink" x="0px" y="0px"
	 viewBox="0 0 13.9 14.2" style="enable-background:new 0 0 13.9 14.2;" xml:space="preserve">
<style type="text/css">
	.st0{fill:#020202;}
</style>
<g>
	<path class="st0" d="M4.6,3.7c0.2,0,0.3,0,0.5,0l0,0c0.2,0.5,0.4,1,0.7,1.5v0.1c0,0.4-0.5,0.6-0.6,1C5.3,6.6,5.4,6.8,5.6,7
		c0.4,0.6,1,1.1,1.7,1.4l0,0c0.2,0.1,0.3,0.2,0.5,0.2l0,0C8.2,8.4,8.4,8,8.6,7.7C9,7.7,9.4,8,9.8,8.1c0.2,0.1,0.4,0.2,0.6,0.3
		c0,0,0,0,0,0.1c0,0.4-0.1,0.9-0.4,1.2c-0.4,0.3-0.8,0.5-1.3,0.5c-0.3,0-0.5,0-0.7-0.1C7.3,9.9,6.7,9.6,6.1,9.2C5.3,8.6,4.6,7.9,4,7
		C3.7,6.5,3.4,6,3.4,5.4V5.3c0-0.5,0.2-0.8,0.4-1.1C4,4,4.2,3.8,4.4,3.7C4.5,3.7,4.5,3.7,4.6,3.7z"/>
	<path class="st0" d="M13.9,6.1c0,0.2,0,0.4,0,0.6c0,1.2-0.3,2.4-0.9,3.5c-0.4,0.7-1,1.4-1.6,2c-1.3,1.1-2.9,1.6-4.5,1.7
		c-1.1,0-2.2-0.2-3.2-0.7l0,0c-1.3,0.3-2.5,0.6-3.7,1c0.1-0.3,0.2-0.6,0.3-0.9c0.3-0.9,0.5-1.8,0.7-2.7c-0.6-1-0.9-2-1-2.9
		C0,7.5,0,7.3,0,7c0-0.8,0.1-1.6,0.4-2.4c0.4-0.9,0.9-1.8,1.5-2.5c0.9-0.9,2-1.6,3.2-1.9C5.5,0.1,5.9,0,6.3,0c0.2,0,0.4,0,0.6,0
		s0.4,0,0.6,0c0.8,0.1,1.7,0.3,2.4,0.6c0.9,0.5,1.5,1,2,1.4c0.8,0.9,1.4,1.9,1.7,3.1C13.8,5.5,13.8,5.8,13.9,6.1z M12.6,7.8
		c0.1-0.3,0.1-0.6,0.1-0.9c0-0.8-0.2-1.6-0.5-2.4C11.6,3.1,10.4,2,9,1.5C8.3,1.2,7.6,1.2,7,1.2c-0.3,0-0.6,0-1,0.1
		c-1.4,0.2-2.8,1-3.7,2.3c-0.7,0.9-1,1.9-1.1,3c0,0.1,0,0.2,0,0.3C1.2,8,1.5,9.1,2.1,10c0.1,0.1,0.1,0.2,0.1,0.3s0,0.1,0,0.2
		c-0.2,0.6-0.4,1.2-0.5,1.8c0.7-0.2,1.3-0.4,2-0.5h0.1c0.1,0,0.2,0.1,0.3,0.1c1,0.5,1.9,0.8,2.9,0.7c1.2,0,2.4-0.4,3.4-1.1
		C11.5,10.6,12.4,9.3,12.6,7.8"/>
</g>
</svg>
